<?xml version="1.0" standalone="no"?>
<!DOCTYPE svg PUBLIC "-//W3C//DTD SVG 20010904//EN"
 "http://www.w3.org/TR/2001/REC-SVG-20010904/DTD/svg10.dtd">
<svg version="1.0" xmlns="http://www.w3.org/2000/svg"
 width="1280.000000pt" height="969.000000pt" viewBox="0 0 1280.000000 969.000000"
 preserveAspectRatio="xMidYMid meet">
<metadata>
Created by potrace 1.15, written by Peter Selinger 2001-2017
</metadata>
<g transform="translate(0.000000,969.000000) scale(0.100000,-0.100000)"
fill="#000000" stroke="none">
<path d="M2115 9678 c-16 -6 -37 -13 -45 -16 -8 -3 -37 -13 -65 -23 -27 -9
-53 -15 -58 -12 -4 3 -16 -2 -25 -10 -22 -20 -83 -46 -202 -86 -64 -22 -107
-44 -132 -67 -21 -19 -42 -34 -47 -34 -5 0 -57 -52 -115 -115 -79 -86 -106
-121 -101 -134 4 -14 -8 -29 -46 -60 -28 -23 -57 -41 -65 -41 -7 0 -33 -16
-59 -36 -51 -38 -279 -160 -362 -193 -45 -17 -283 -84 -427 -120 -119 -29
-307 -146 -341 -211 -9 -17 -19 -53 -22 -80 -5 -45 -3 -51 26 -80 22 -23 36
-30 49 -25 50 22 981 63 1034 46 18 -5 85 -24 148 -40 114 -30 265 -93 391
-164 36 -20 87 -41 112 -46 33 -6 72 -27 132 -70 47 -35 123 -80 169 -102 92
-43 122 -71 195 -184 25 -38 54 -77 65 -86 26 -21 24 -93 -6 -209 -39 -151
-97 -221 -285 -343 -24 -15 -43 -32 -43 -37 0 -5 -26 -26 -57 -46 -156 -100
-705 -650 -764 -765 -10 -22 -42 -73 -69 -115 -28 -42 -50 -81 -50 -87 0 -6
-6 -18 -14 -26 -19 -23 -81 -145 -111 -221 -39 -96 -75 -234 -87 -330 -5 -46
-16 -89 -23 -95 -9 -7 -15 -56 -20 -155 -15 -297 -14 -351 2 -392 11 -28 12
-42 4 -52 -6 -7 -8 -16 -4 -20 5 -4 10 -43 14 -86 5 -78 40 -186 106 -330 14
-30 33 -78 43 -106 10 -27 50 -103 89 -168 39 -65 71 -125 71 -132 0 -7 13
-28 29 -46 15 -18 47 -64 71 -102 71 -117 349 -414 440 -471 25 -15 70 -51
100 -80 31 -29 67 -56 80 -60 14 -4 54 -32 90 -63 36 -30 88 -65 116 -78 28
-12 88 -43 133 -68 46 -25 88 -46 94 -46 15 0 167 -87 283 -161 296 -189 605
-311 994 -394 186 -40 283 -69 397 -121 104 -48 396 -152 628 -223 144 -44
155 -46 155 -28 0 8 -6 19 -12 24 -12 10 -99 33 -193 52 -22 5 -80 25 -130 46
-49 20 -147 56 -217 80 -198 68 -223 88 -67 55 188 -40 224 -51 246 -75 16
-16 85 -44 230 -91 114 -36 210 -68 211 -70 2 -1 7 -32 12 -69 5 -37 15 -74
23 -83 31 -35 81 -167 83 -219 2 -28 7 -61 13 -72 9 -16 7 -29 -10 -61 -14
-26 -25 -73 -31 -131 -5 -49 -13 -100 -18 -114 -8 -22 -13 -23 -63 -18 -79 8
-152 -18 -173 -62 -14 -31 -22 -35 -117 -60 -129 -34 -150 -42 -144 -58 6 -21
156 -28 192 -9 28 14 29 14 17 -1 -8 -9 -10 -21 -7 -28 6 -8 -13 -10 -71 -4
-68 5 -85 4 -124 -14 -25 -11 -59 -21 -76 -21 -17 0 -54 -7 -83 -16 -60 -18
-105 -14 -56 4 17 7 37 16 45 21 9 5 31 12 50 16 37 8 60 22 60 36 0 15 -113
10 -166 -7 -106 -34 -104 -32 -104 -79 l0 -42 59 -7 c44 -5 68 -15 99 -38 39
-30 41 -34 35 -73 -5 -36 -2 -45 18 -58 21 -15 25 -15 46 -1 20 12 29 13 58 3
27 -10 51 -10 111 -1 70 11 235 69 257 91 4 4 12 46 17 92 5 46 13 98 18 116
12 39 64 133 74 133 3 0 -1 -21 -9 -47 -8 -27 -19 -74 -24 -107 -5 -32 -24
-101 -41 -153 l-31 -94 -56 -26 c-44 -20 -52 -27 -38 -32 17 -6 17 -8 3 -20
-13 -11 -19 -10 -34 9 l-18 23 -20 -24 c-39 -50 -94 -75 -94 -44 0 11 -12 15
-50 15 -28 0 -63 6 -78 14 -86 43 -328 76 -556 76 -137 0 -142 -1 -191 -29
-69 -40 -127 -95 -119 -114 9 -24 32 -28 72 -12 35 15 62 14 62 -3 0 -4 -24
-22 -52 -40 -58 -34 -144 -57 -253 -67 -151 -13 -149 -12 -235 -81 -90 -73
-119 -114 -95 -134 13 -10 30 -8 92 13 l77 27 32 -35 c35 -38 112 -77 147 -75
39 4 47 0 40 -16 -3 -8 4 -25 17 -39 l22 -23 -41 -55 c-46 -61 -51 -89 -19
-111 32 -23 52 -20 89 12 43 36 120 37 196 4 61 -26 91 -22 216 28 89 36 105
36 188 10 53 -17 79 -20 149 -14 92 7 130 21 205 78 26 20 56 36 68 36 22 0
154 42 197 63 14 7 66 44 117 83 82 64 97 72 150 78 97 11 125 24 186 80 48
45 58 60 56 83 -2 15 3 42 11 60 l14 32 54 -51 c48 -45 56 -49 86 -44 23 5 37
2 46 -9 7 -8 20 -15 30 -15 63 0 54 119 -16 217 -16 22 -16 23 14 23 21 0 35
-8 46 -25 20 -30 40 -32 58 -6 9 13 26 19 57 19 35 1 50 7 77 33 19 18 34 38
34 45 0 7 21 25 48 40 55 32 59 36 72 87 14 50 34 48 89 -12 60 -63 78 -72
139 -64 73 8 74 10 66 84 -7 59 -11 68 -53 109 -46 46 -92 114 -120 180 -24
56 -19 298 9 443 6 32 14 101 18 155 l7 97 110 11 c61 6 140 20 177 32 37 12
119 28 181 36 63 8 165 30 228 49 63 19 139 40 169 47 74 16 198 55 235 73 17
9 83 27 148 42 123 27 300 86 376 124 82 43 249 80 446 101 55 6 168 20 250
30 83 11 217 24 299 30 165 11 256 29 308 60 l35 20 104 -25 c131 -32 209 -42
209 -27 0 16 -28 28 -83 36 -65 10 -273 70 -384 111 -129 48 -413 186 -413
201 0 12 -72 76 -123 109 -40 26 -46 10 -9 -28 18 -18 32 -38 32 -44 0 -11
-90 -23 -176 -23 -57 0 -75 -13 -51 -37 12 -12 38 -16 109 -16 52 0 103 3 113
6 20 6 54 -7 44 -17 -2 -3 -53 -8 -112 -12 -110 -7 -125 -16 -76 -42 35 -19
197 -10 235 12 28 17 31 17 78 -4 34 -14 46 -24 39 -31 -14 -14 -319 -30 -350
-18 -32 12 -103 12 -103 -1 0 -5 15 -17 33 -27 28 -16 59 -18 237 -18 177 0
210 3 242 18 30 16 39 16 57 5 55 -34 19 -40 -289 -48 -290 -7 -327 -13 -317
-51 4 -16 0 -19 -30 -19 -31 0 -34 2 -27 23 15 49 23 63 53 91 28 27 43 76 23
76 -23 0 -78 -52 -106 -100 -28 -47 -38 -56 -68 -61 -20 -3 -76 -22 -125 -42
-48 -20 -107 -41 -130 -47 -57 -14 -54 -28 5 -32 l47 -3 -34 -22 c-39 -25
-211 -87 -219 -79 -8 9 69 89 120 124 61 42 53 58 -15 31 -78 -32 -102 -38
-222 -60 -179 -33 -318 -50 -348 -45 -23 5 -28 3 -25 -12 5 -27 198 -21 351
11 78 16 117 21 117 13 -1 -6 -19 -31 -40 -55 -34 -37 -51 -46 -112 -62 -82
-22 -139 -24 -156 -7 -9 9 -26 9 -74 0 -123 -24 -405 -52 -520 -52 -65 0 -118
-4 -118 -9 0 -29 225 -37 374 -14 28 4 37 3 32 -5 -4 -7 -16 -12 -27 -12 -10
0 -51 -11 -91 -25 -45 -15 -117 -28 -188 -35 -63 -5 -140 -17 -170 -25 -64
-17 -116 -19 -125 -5 -8 13 -165 13 -165 1 0 -5 9 -13 20 -16 11 -3 20 -10 20
-14 0 -25 -194 -28 -345 -5 -55 8 -134 19 -175 25 -41 5 -77 12 -79 15 -18 17
50 23 239 22 118 -1 225 1 238 5 51 19 15 27 -120 28 -79 1 -154 4 -167 8 -23
6 -21 8 20 26 24 10 56 27 71 37 35 24 56 23 78 -4 17 -22 26 -23 185 -26 168
-4 215 0 215 18 0 6 -60 10 -152 10 -150 0 -228 7 -228 19 0 3 40 20 88 37 85
31 90 32 222 27 135 -5 199 5 185 28 -5 7 -29 8 -70 4 -70 -8 -165 2 -165 16
0 14 64 40 130 53 62 13 75 37 25 47 l-30 6 50 23 c101 45 158 90 218 171 32
43 65 95 73 115 29 69 -10 57 -66 -21 -72 -100 -158 -181 -223 -210 -34 -15
-80 -44 -102 -65 -55 -52 -206 -133 -323 -174 -53 -19 -115 -41 -137 -49 -26
-10 -99 -18 -205 -22 -107 -5 -174 -12 -192 -21 -15 -8 -55 -18 -90 -23 -99
-15 -170 -29 -208 -41 -44 -13 -151 -13 -218 0 -27 5 -97 14 -154 20 -56 5
-200 30 -318 54 -118 24 -262 52 -320 61 -58 10 -147 30 -199 46 -51 16 -138
36 -192 44 -55 8 -107 19 -117 24 -9 5 -53 17 -97 26 -44 10 -86 23 -94 29 -8
6 -40 16 -73 23 -77 16 -407 160 -453 198 l-20 17 20 -8 c11 -4 79 -29 150
-56 127 -48 493 -171 548 -184 49 -11 29 14 -28 35 -31 12 -60 21 -65 21 -5 0
-15 10 -21 23 -7 12 -42 51 -78 87 -120 118 -209 237 -230 310 -25 81 -42 202
-30 214 10 11 9 13 44 -114 25 -89 61 -150 88 -150 15 0 0 59 -32 125 -33 68
-45 108 -61 215 -13 88 -27 127 -48 139 -14 8 -14 29 -4 197 7 104 12 203 12
219 -1 26 -2 28 -11 12 -18 -31 -37 -163 -45 -317 l-8 -145 -8 80 c-19 188 4
444 68 776 26 135 29 169 15 154 -12 -14 -39 -109 -67 -240 l-24 -110 6 99 c3
54 12 132 20 173 18 94 18 111 2 95 -23 -23 -25 -12 -12 56 20 102 17 127 -8
62 -16 -40 -22 -82 -23 -155 -1 -55 -10 -185 -20 -290 -26 -275 -27 -745 -2
-875 22 -112 49 -185 84 -222 16 -17 33 -58 48 -114 13 -47 28 -91 33 -96 13
-13 32 -2 32 18 0 21 9 17 38 -18 15 -18 58 -66 96 -105 38 -40 67 -75 64 -78
-11 -11 -210 75 -251 108 -69 57 -157 170 -151 194 4 12 -6 42 -24 74 -22 40
-31 67 -31 104 0 28 -7 86 -16 130 -8 44 -18 127 -21 185 -5 75 -11 110 -23
124 -14 16 -16 49 -15 240 2 297 19 462 70 660 16 60 12 107 -6 76 -13 -23
-57 -203 -74 -305 -9 -49 -20 -164 -26 -254 -6 -91 -12 -167 -14 -169 -21 -20
-17 350 5 508 23 171 55 318 105 483 9 29 -14 19 -31 -14 -56 -107 -125 -488
-125 -691 0 -66 -7 -89 -25 -82 -23 9 -28 -29 -34 -251 -3 -121 -9 -211 -13
-200 -10 28 -36 223 -43 328 -4 48 -11 87 -16 87 -14 0 -10 224 6 303 8 40 28
158 45 262 23 140 43 225 76 324 33 95 43 136 35 144 -13 13 -62 -90 -91 -194
-22 -81 -61 -280 -91 -464 -32 -192 -39 -685 -10 -685 4 0 11 12 17 28 8 23
12 10 28 -92 16 -98 16 -120 5 -126 -23 -15 -7 -116 41 -245 10 -27 26 -71 35
-97 20 -58 35 -62 35 -9 0 22 5 41 11 43 9 3 9 9 1 25 -6 11 -21 64 -32 117
-19 88 -20 98 -5 112 9 9 17 15 19 13 10 -15 86 -306 86 -331 0 -44 42 -114
139 -233 44 -55 81 -103 81 -106 0 -7 -154 51 -255 95 -36 16 -61 23 -63 16
-2 -6 -16 -2 -32 10 -16 11 -54 32 -86 47 -31 14 -86 47 -123 74 -36 27 -85
63 -107 79 -26 19 -52 30 -70 29 -42 -2 -129 41 -204 101 -36 29 -90 69 -120
90 -31 21 -62 46 -70 55 -8 10 -46 39 -85 65 -38 26 -94 69 -124 96 -72 65
-282 304 -328 374 -20 30 -49 73 -63 95 -15 22 -42 69 -60 105 -18 36 -49 92
-68 125 -47 77 -91 178 -149 335 -53 146 -72 275 -72 490 -1 158 15 378 27
394 5 6 17 61 26 121 27 173 69 284 185 495 11 19 30 57 43 83 13 26 37 64 53
84 17 20 41 60 55 89 14 31 70 103 130 170 113 125 554 554 569 554 6 0 30 18
55 39 25 22 55 43 67 46 57 18 278 223 293 273 9 27 22 28 29 2 3 -11 11 -20
19 -20 9 0 18 25 27 82 19 125 30 129 31 11 0 -94 2 -103 21 -114 12 -6 25 -7
30 -2 4 4 3 64 -3 133 -10 105 -9 130 3 154 8 16 20 31 27 34 11 3 13 -26 11
-149 -4 -180 8 -242 44 -237 24 3 24 -9 13 188 -3 58 -11 156 -17 218 -10 104
-9 135 7 119 3 -3 12 -75 19 -159 12 -136 43 -299 60 -316 3 -4 14 -1 23 5 12
7 17 24 17 52 0 43 9 54 18 21 7 -29 34 -35 57 -15 25 22 25 36 1 66 -10 13
-24 56 -30 94 -7 39 -16 93 -22 120 -16 87 -32 246 -25 252 15 15 25 -19 41
-132 9 -66 25 -158 35 -205 11 -47 21 -98 22 -115 3 -26 7 -30 33 -30 25 0 30
5 38 37 7 30 5 40 -11 56 -11 11 -25 46 -32 79 -6 32 -19 89 -27 126 -10 43
-13 90 -10 124 4 40 1 64 -11 89 -12 26 -13 37 -4 46 35 35 64 -62 92 -303 5
-41 14 -87 21 -102 17 -37 44 -35 58 6 10 28 9 34 -7 48 -22 17 -32 66 -37
167 -2 37 -6 91 -10 119 -6 44 -5 54 9 59 9 4 18 5 20 3 2 -2 11 -55 20 -117
9 -62 22 -130 29 -150 15 -46 42 -54 59 -17 10 23 9 33 -9 68 -19 37 -36 117
-25 117 2 0 13 -11 24 -25 23 -30 34 -31 47 -7 7 14 5 28 -8 53 -10 19 -21 60
-24 92 -5 47 -12 66 -41 100 -47 56 -69 78 -105 105 -16 12 -52 55 -78 95 -27
40 -71 95 -99 122 -27 28 -96 106 -154 175 -57 69 -138 161 -180 205 -42 44
-88 100 -102 125 -15 25 -42 61 -62 79 -20 19 -36 38 -36 42 0 4 26 22 58 39
31 18 73 50 94 72 36 39 37 39 115 41 77 2 78 2 93 -28 30 -58 55 -91 145
-190 177 -195 237 -268 299 -364 35 -53 84 -121 110 -149 25 -29 46 -58 46
-64 0 -19 73 -83 91 -80 28 5 32 -53 8 -107 -40 -87 -69 -164 -64 -170 13 -13
49 44 103 164 69 152 84 209 87 325 2 47 10 133 19 192 17 115 15 138 -16 138
-17 0 -19 6 -16 65 2 36 6 65 9 65 4 0 26 -36 49 -81 29 -56 40 -89 37 -107
-3 -14 2 -73 10 -131 10 -77 11 -111 4 -129 -13 -28 -14 -105 -1 -191 12 -82
-2 -112 -21 -47 -25 87 -44 43 -34 -79 6 -74 5 -84 -12 -93 -16 -10 -19 -31
-24 -229 -7 -238 -6 -223 -16 -223 -5 0 -9 57 -11 128 -3 113 -11 156 -27 141
-2 -3 -7 -32 -10 -65 -11 -105 -16 -129 -25 -114 -13 20 -26 -17 -45 -124 -11
-58 -13 -91 -6 -95 6 -4 6 -33 -1 -84 -11 -79 -28 -104 -28 -43 0 38 -16 57
-23 29 -26 -95 -32 -111 -51 -119 -29 -13 -54 -104 -70 -249 -13 -110 -39
-206 -53 -191 -3 3 2 29 11 58 24 77 25 131 4 136 -12 2 -22 -8 -32 -32 -8
-20 -22 -36 -30 -36 -24 0 -53 -38 -65 -86 -8 -31 -19 -48 -35 -55 -13 -6 -33
-29 -45 -50 -12 -21 -26 -39 -31 -39 -4 0 -28 -21 -52 -46 -23 -25 -59 -54
-79 -64 -19 -10 -57 -43 -82 -74 -26 -30 -58 -58 -70 -62 -12 -3 -31 -15 -42
-25 -35 -31 -94 -52 -111 -38 -12 10 -20 8 -42 -8 -33 -24 -149 -198 -220
-330 -28 -54 -81 -143 -117 -198 -60 -92 -135 -248 -135 -281 0 -29 32 -13 46
24 43 108 86 182 105 182 16 0 17 3 7 19 -10 16 -8 23 9 43 80 89 104 125 148
218 53 114 75 153 82 146 3 -2 -4 -24 -15 -48 -14 -33 -16 -48 -8 -60 8 -14 2
-29 -30 -75 -22 -32 -51 -78 -64 -103 -14 -25 -29 -51 -34 -59 -32 -43 -47
-156 -24 -179 8 -8 4 -27 -20 -75 -18 -36 -32 -76 -32 -90 0 -14 -8 -45 -18
-69 -25 -57 -45 -139 -36 -147 4 -3 9 0 11 7 3 6 12 12 22 12 17 0 57 57 47
67 -3 3 -13 0 -22 -8 -16 -13 -17 -11 -12 11 13 54 99 261 157 377 33 68 61
125 61 128 0 3 -7 5 -15 5 -8 0 -28 -26 -44 -57 -30 -57 -70 -115 -71 -101 0
22 32 124 44 137 7 9 46 63 85 121 46 68 67 108 61 114 -15 15 -12 36 5 36 9
0 36 19 60 41 25 23 48 40 50 37 3 -2 -9 -27 -27 -54 -44 -68 -123 -261 -154
-371 -19 -70 -24 -111 -22 -170 2 -43 7 -78 13 -78 5 0 14 27 18 60 5 33 13
64 18 70 5 5 9 34 9 66 0 42 7 68 27 105 14 27 38 76 52 109 29 67 82 155 94
155 20 0 4 -79 -32 -154 -47 -99 -57 -153 -41 -212 15 -53 21 -58 60 -49 27 6
142 76 180 110 12 10 142 65 155 65 2 0 1 -9 -2 -20 -7 -27 11 -26 94 6 52 19
232 64 259 64 2 0 4 8 4 18 0 15 10 17 100 14 58 -2 100 1 100 6 0 13 -64 21
-230 28 -80 4 -152 10 -160 14 -22 12 61 18 431 30 184 6 353 16 375 23 21 6
112 12 202 13 136 1 165 4 175 17 11 15 25 13 150 -15 116 -25 143 -28 162
-18 18 10 50 10 146 1 197 -19 465 -60 574 -87 184 -48 178 -47 192 -28 11 15
19 15 78 4 51 -10 65 -16 63 -29 -3 -13 11 -17 72 -24 137 -14 277 -37 311
-51 l34 -14 -30 -7 c-16 -4 -34 -8 -39 -9 -5 -1 42 -17 105 -35 168 -49 318
-100 370 -127 26 -13 105 -61 177 -108 113 -74 306 -179 378 -207 19 -7 24 -5
24 7 0 9 -26 27 -67 45 -131 58 -233 115 -233 130 0 17 20 9 140 -50 66 -32
144 -65 173 -71 51 -12 151 -62 163 -81 3 -5 47 -37 97 -71 84 -56 159 -112
292 -217 50 -41 85 -57 85 -40 0 12 -20 30 -140 128 -92 75 -120 95 -300 218
-46 32 -92 65 -102 74 -10 8 -62 39 -115 69 -54 29 -116 65 -138 79 -126 81
-497 270 -542 276 -18 2 -46 13 -62 25 -56 39 -117 59 -332 109 -370 86 -917
169 -1229 186 -63 3 -169 15 -234 26 -82 14 -122 17 -129 10 -6 -6 -9 -12 -6
-13 16 -11 138 -48 156 -48 12 0 25 -4 28 -10 8 -13 -65 -13 -141 1 -36 6 -69
20 -84 34 -26 24 -91 38 -225 51 -38 3 -126 19 -195 35 -69 16 -171 38 -228
49 -57 11 -108 22 -113 26 -5 3 -48 12 -95 19 -53 9 -104 25 -136 42 -61 33
-144 106 -153 133 -8 25 -32 26 -38 3 -4 -14 -5 -13 -6 4 0 12 4 25 10 29 6 4
26 39 45 79 18 41 39 77 47 82 8 4 22 22 31 40 9 18 32 47 51 66 43 42 69 89
53 98 -17 11 1 29 28 29 13 0 24 5 24 10 0 6 12 23 28 38 30 30 43 49 72 109
11 23 25 45 30 48 5 3 15 23 21 44 7 25 21 44 38 52 51 27 79 65 96 130 9 35
28 78 41 96 13 17 24 37 24 44 0 7 10 23 21 35 28 30 53 114 53 182 1 42 4 52
18 52 10 0 23 10 29 23 16 29 32 218 32 387 l1 135 -63 185 c-35 102 -83 221
-106 265 -23 44 -45 92 -49 106 -3 14 -29 56 -58 92 -29 36 -61 77 -71 91 -9
14 -33 33 -52 42 -20 9 -47 36 -65 63 -32 50 -119 131 -142 131 -7 0 -38 16
-68 35 -30 19 -62 35 -71 35 -9 0 -56 25 -105 55 -120 74 -196 109 -292 134
-71 18 -136 26 -382 45 -30 2 -68 -1 -85 -6z m115 -73 c-23 -25 -80 -35 -80
-15 0 6 8 10 19 10 10 0 24 7 31 15 7 8 22 15 33 15 20 0 20 -1 -3 -25z m310
-11 c0 -2 -7 -4 -15 -4 -8 0 -15 4 -15 10 0 5 7 7 15 4 8 -4 15 -8 15 -10z
m123 -23 c17 -17 -9 -18 -61 -2 -30 9 -51 19 -48 22 8 8 97 -8 109 -20z m-180
-17 c26 -9 47 -19 47 -23 0 -7 -202 7 -210 16 -3 2 4 11 15 20 23 16 70 12
148 -13z m242 -17 c11 -8 42 -22 68 -32 43 -16 77 -49 64 -61 -9 -9 -132 58
-150 82 -20 27 -12 31 18 11z m-487 -17 c19 -5 89 -14 155 -20 154 -13 163
-15 170 -40 6 -24 8 -24 -118 -5 -305 46 -359 47 -405 9 -24 -20 -172 -74
-167 -61 5 17 144 85 217 107 76 22 103 24 148 10z m386 -19 c3 -5 52 -28 108
-52 57 -24 130 -59 163 -78 l60 -36 -33 -3 c-19 -2 -41 3 -50 11 -10 7 -74 41
-144 75 -83 39 -128 66 -128 76 0 17 15 22 24 7z m-161 -89 c19 -10 58 -27 88
-37 82 -26 135 -60 147 -94 6 -17 47 -60 99 -105 83 -70 124 -119 111 -131 -3
-3 -25 16 -50 42 -25 27 -67 59 -94 73 -27 14 -54 37 -61 51 -13 27 -218 146
-312 181 -51 19 -235 24 -326 8 -59 -9 -70 -5 -29 11 63 25 95 28 242 25 129
-4 158 -7 185 -24z m271 -43 c50 -23 135 -70 188 -105 53 -35 105 -64 115 -64
12 0 30 -19 51 -53 18 -29 32 -56 32 -59 0 -3 -11 -3 -25 0 -15 3 -47 31 -83
73 -46 55 -63 69 -86 69 -17 0 -71 26 -135 64 -58 35 -123 72 -143 82 -21 10
-38 21 -38 26 0 16 35 7 124 -33z m-898 12 c-3 -5 -16 -11 -28 -14 -13 -2 -32
-8 -42 -12 -14 -6 -17 -5 -12 4 9 14 43 29 69 30 10 1 16 -3 13 -8z m564 -26
c8 -5 6 -11 -4 -18 -8 -7 -16 -21 -18 -32 -2 -13 -12 -21 -30 -23 -22 -3 -27
2 -33 28 -4 17 -13 34 -21 37 -8 3 -14 10 -14 15 0 11 101 5 120 -7z m-500
-10 c-33 -19 -50 -18 -26 0 11 8 27 15 35 15 10 -1 7 -6 -9 -15z m175 7 c-73
-62 -115 -91 -120 -82 -13 22 -37 8 -54 -32 -15 -34 -20 -39 -26 -25 -14 35
-42 19 -67 -40 -28 -65 -63 -112 -73 -101 -4 4 0 19 9 32 20 31 20 32 2 39 -9
4 -34 -13 -62 -41 -25 -26 -44 -39 -40 -29 3 10 6 30 6 43 0 17 8 27 24 34 13
5 80 46 148 91 67 45 148 90 178 100 61 19 89 23 75 11z m-225 -33 c0 -5 -8
-13 -17 -16 -33 -13 -143 -95 -153 -114 -6 -10 -16 -19 -22 -19 -7 0 -22 -10
-35 -22 -34 -32 -28 -18 20 45 64 86 207 173 207 126z m620 0 c22 -12 43 -25
46 -30 3 -5 29 -21 57 -36 67 -35 40 -42 -34 -9 -56 25 -119 71 -119 87 0 13
4 12 50 -12z m595 -9 c3 -5 1 -10 -4 -10 -6 0 -11 5 -11 10 0 6 2 10 4 10 3 0
8 -4 11 -10z m-845 -19 c0 -16 -22 -71 -28 -71 -18 1 -63 52 -58 65 6 16 86
22 86 6z m804 -17 c11 -28 6 -39 -9 -20 -8 11 -15 23 -15 28 0 14 18 9 24 -8z
m-19 -171 c30 -34 55 -63 55 -66 0 -11 -41 6 -53 22 -7 9 -37 33 -67 54 -30
20 -82 62 -115 92 l-60 56 93 -49 c69 -37 106 -64 147 -109z m199 122 c3 -8 1
-15 -4 -15 -6 0 -10 7 -10 15 0 8 2 15 4 15 2 0 6 -7 10 -15z m-1634 -10 c0
-3 -8 -18 -18 -33 -11 -15 -32 -46 -47 -70 -16 -24 -46 -63 -68 -88 -21 -24
-43 -61 -49 -81 -5 -21 -16 -51 -22 -68 -32 -74 -56 -146 -75 -218 -18 -67
-20 -84 -10 -118 7 -21 9 -42 6 -45 -4 -4 -154 -10 -334 -15 -309 -7 -467 -21
-775 -65 -60 -9 -63 6 -10 56 20 19 56 57 79 83 34 39 55 53 110 73 37 13 80
24 95 24 15 0 74 9 130 20 83 17 280 50 295 50 2 0 -2 -9 -9 -20 -7 -10 -9
-22 -5 -26 7 -7 118 30 155 53 36 22 27 36 -20 28 -58 -10 -49 -1 60 57 28 15
53 32 57 38 3 5 34 29 68 52 34 23 125 104 203 180 93 90 149 138 163 138 11
0 21 -2 21 -5z m551 -20 c-1 -15 -24 -12 -29 3 -3 9 2 13 12 10 10 -1 17 -7
17 -13z m1134 -25 c3 -6 -1 -7 -9 -4 -18 7 -21 14 -7 14 6 0 13 -4 16 -10z
m-600 -16 c22 -6 65 -66 65 -91 0 -22 60 -99 189 -246 132 -150 179 -210 202
-262 18 -41 73 -105 90 -105 5 0 9 19 9 43 0 30 3 38 10 27 15 -24 22 -89 15
-138 -6 -40 -8 -44 -17 -27 -6 11 -41 56 -77 100 -77 92 -121 151 -121 160 0
13 -197 252 -276 335 -77 81 -174 195 -174 205 0 7 61 6 85 -1z m-650 -14 c-3
-5 -10 -10 -16 -10 -5 0 -9 5 -9 10 0 6 7 10 16 10 8 0 12 -4 9 -10z m1165
-22 c0 -6 -6 -5 -15 2 -8 7 -15 14 -15 16 0 2 7 1 15 -2 8 -4 15 -11 15 -16z
m-1579 -77 c8 -34 6 -48 -11 -81 -11 -21 -29 -62 -40 -90 -20 -52 -20 -52 -1
-57 13 -3 39 -39 69 -97 27 -50 63 -111 80 -136 16 -25 40 -65 53 -90 13 -25
49 -74 81 -110 35 -39 58 -74 58 -88 0 -31 -18 -19 -36 24 -8 19 -31 45 -53
58 -61 39 -166 190 -242 349 -25 52 -45 60 -55 22 -7 -28 -16 -31 -32 -12 -13
15 9 91 34 118 8 8 14 22 14 30 0 8 16 39 35 69 39 61 41 70 21 70 -17 0 -69
-58 -92 -103 -11 -20 -19 -27 -22 -18 -2 7 6 32 18 55 27 48 100 139 107 132
3 -2 9 -23 14 -45z m405 -8 c52 -92 223 -309 359 -458 76 -82 146 -164 157
-182 10 -17 30 -38 43 -47 28 -19 80 -84 72 -92 -3 -3 -20 10 -37 30 -33 36
-93 70 -112 64 -6 -2 12 -30 40 -61 29 -32 52 -62 52 -67 0 -21 -20 -8 -62 41
-24 28 -66 76 -93 108 -55 61 -121 145 -172 218 -17 25 -45 60 -61 77 -34 37
-171 218 -197 261 -10 17 -30 42 -44 58 -46 50 -71 25 -28 -28 12 -16 38 -52
57 -81 19 -29 78 -106 131 -171 52 -65 136 -172 186 -238 50 -66 109 -142 132
-170 59 -71 51 -79 -13 -13 -29 31 -71 64 -92 73 -39 16 -164 138 -164 159 0
13 -5 20 -161 227 -63 85 -122 167 -130 183 -18 39 -39 45 -39 13 0 -23 89
-169 151 -247 62 -78 127 -167 142 -196 8 -16 44 -61 79 -99 80 -87 107 -130
90 -147 -22 -22 -283 285 -406 481 -14 21 -43 59 -65 83 -55 59 -67 97 -45
140 21 40 42 57 71 58 12 0 34 10 50 23 32 25 65 46 75 46 3 1 18 -20 34 -46z
m886 -45 c34 -45 58 -93 58 -117 0 -25 18 -37 33 -22 8 8 8 25 0 62 -10 52
-10 52 9 28 10 -13 35 -58 55 -99 30 -63 47 -90 91 -150 2 -2 7 2 11 9 7 11
11 9 20 -7 6 -11 30 -32 55 -46 38 -22 45 -32 51 -67 4 -22 5 -42 3 -44 -2 -2
-19 21 -38 51 -29 46 -42 57 -78 67 -34 9 -62 31 -133 104 -50 51 -93 93 -97
93 -4 0 -16 15 -26 33 -11 17 -41 60 -68 94 -26 35 -48 67 -48 73 0 18 76 -28
102 -62z m-728 12 c7 -25 25 -59 41 -75 17 -17 66 -73 110 -125 44 -52 99
-115 121 -140 156 -170 323 -375 326 -398 2 -15 8 -26 15 -25 12 3 78 -86 70
-93 -2 -3 -20 13 -40 35 -19 22 -37 37 -39 35 -10 -9 -457 470 -505 542 -15
21 -49 66 -77 99 -67 82 -106 144 -106 173 0 21 4 23 36 20 35 -3 38 -6 48
-48z m932 12 c14 -9 37 -52 31 -58 -2 -3 -10 2 -17 11 -14 17 -40 20 -40 5 0
-6 14 -36 30 -67 17 -31 28 -59 25 -62 -4 -3 -9 -1 -13 5 -99 142 -112 165
-91 153 19 -10 25 -9 34 5 11 17 24 20 41 8z m143 -62 c23 -30 41 -58 41 -62
0 -4 18 -37 40 -73 22 -36 35 -65 30 -65 -6 0 -24 21 -40 48 -59 96 -80 122
-100 122 -12 0 -20 7 -20 18 0 10 -7 28 -16 41 -14 19 -14 25 -3 32 16 10 15
11 68 -61z m51 20 c0 -5 -4 -10 -10 -10 -5 0 -10 5 -10 10 0 6 5 10 10 10 6 0
10 -4 10 -10z m35 0 c3 -5 1 -10 -4 -10 -6 0 -11 5 -11 10 0 6 2 10 4 10 3 0
8 -4 11 -10z m-1615 -42 c0 -28 25 -70 85 -143 25 -31 45 -62 45 -69 0 -7 15
-29 34 -49 53 -57 196 -266 196 -288 0 -31 -26 -11 -105 80 -38 45 -90 103
-113 129 -24 26 -55 70 -69 97 -14 28 -40 66 -58 86 -17 19 -40 50 -51 67 -10
18 -22 32 -26 32 -32 0 57 -166 149 -279 25 -31 55 -75 65 -99 11 -23 23 -40
28 -37 5 3 24 -13 42 -36 18 -23 63 -71 101 -108 60 -59 81 -91 59 -91 -4 0
-29 22 -55 50 -26 27 -62 56 -79 63 -37 16 -135 123 -163 177 -10 19 -33 54
-51 77 -19 23 -34 45 -34 50 0 5 -25 48 -55 96 l-56 87 28 60 c15 33 35 61 43
64 32 8 40 5 40 -16z m1550 -147 c12 -23 14 -81 3 -81 -20 1 -33 19 -39 58 -5
35 -4 42 9 42 9 0 21 -9 27 -19z m294 -7 c11 -27 7 -37 -9 -24 -16 14 -20 40
-6 40 5 0 12 -7 15 -16z m-2140 -9 c-4 -8 -8 -15 -10 -15 -2 0 -4 7 -4 15 0 8
4 15 10 15 5 0 7 -7 4 -15z m1932 -62 c-2 -10 -8 -42 -11 -72 -5 -36 -10 -49
-16 -40 -13 21 -11 103 3 117 18 18 30 15 24 -5z m-1780 -95 c61 -115 58 -108
46 -108 -17 0 -112 162 -112 190 0 29 23 0 66 -82z m-86 17 c10 -24 42 -79 70
-120 28 -42 50 -80 48 -85 -2 -5 -22 7 -46 27 -66 54 -142 223 -102 223 6 0
19 -20 30 -45z m-66 -72 c4 -13 3 -23 -2 -23 -12 0 -32 55 -31 84 0 17 3 16
14 -9 7 -16 16 -40 19 -52z m1774 7 c-2 -7 -10 1 -17 16 -12 27 -11 28 4 12
10 -9 16 -21 13 -28z m-1808 -87 c0 -24 -25 -9 -28 17 -3 21 -2 22 12 11 9 -7
16 -20 16 -28z m96 -20 c25 -34 16 -41 -31 -23 -23 9 -25 13 -15 25 16 20 30
19 46 -2z m210 -28 c24 -37 12 -40 -15 -5 -12 17 -17 30 -12 30 6 0 18 -11 27
-25z m1634 -14 c0 -4 -5 -23 -11 -40 -8 -22 -15 -29 -22 -22 -7 7 -6 20 3 40
11 29 30 42 30 22z m290 -21 c0 -5 -4 -10 -10 -10 -5 0 -10 5 -10 10 0 6 5 10
10 10 6 0 10 -4 10 -10z m-1490 -35 c10 -12 10 -15 -4 -15 -9 0 -16 7 -16 15
0 8 2 15 4 15 2 0 9 -7 16 -15z m1513 -115 c-8 -9 -23 26 -22 55 1 29 2 28 14
-10 7 -22 10 -42 8 -45z m-74 7 c9 -38 -2 -69 -17 -52 -5 6 -12 34 -14 63 -5
46 -3 52 9 39 8 -8 18 -30 22 -50z m-1364 -57 c2 -25 -6 -25 -35 -2 -17 14
-21 24 -15 41 l7 23 21 -20 c11 -12 21 -30 22 -42z m176 27 c12 -22 12 -22
-10 -3 -11 11 -21 23 -21 28 0 14 19 -1 31 -25z m-371 -2 c7 -8 8 -15 2 -15
-5 0 -15 7 -22 15 -7 8 -8 15 -2 15 5 0 15 -7 22 -15z m744 -56 c31 -39 56
-75 56 -80 0 -19 -82 56 -106 97 -13 22 -24 44 -24 47 0 20 23 0 74 -64z
m-201 -12 c-6 -10 -62 50 -63 67 0 6 16 -5 35 -24 19 -18 31 -38 28 -43z
m1097 48 c0 -8 -2 -15 -4 -15 -2 0 -6 7 -10 15 -3 8 -1 15 4 15 6 0 10 -7 10
-15z m-975 -71 l48 -56 -34 7 c-19 4 -46 16 -61 26 -14 11 -32 19 -39 19 -8 0
-7 6 4 18 10 10 17 24 17 30 0 23 17 11 65 -44z m-555 21 c20 -24 6 -28 -15
-5 -10 11 -13 20 -8 20 6 0 16 -7 23 -15z m1470 -34 c5 -11 7 -27 3 -37 -6
-16 -7 -16 -14 2 -9 22 -11 54 -4 54 2 0 9 -9 15 -19z m-1080 -12 c0 -5 -4 -9
-10 -9 -5 0 -10 7 -10 16 0 8 5 12 10 9 6 -3 10 -10 10 -16z m424 -20 c48 -57
26 -70 -23 -14 -35 40 -37 45 -17 45 8 0 26 -14 40 -31z m-583 4 c13 -16 12
-17 -3 -4 -10 7 -18 15 -18 17 0 8 8 3 21 -13z m1187 -78 c13 -53 20 -100 16
-115 -8 -28 -4 -36 -36 85 -6 22 -17 57 -24 78 -18 48 -18 49 4 45 12 -2 23
-26 40 -93z m-1293 58 c3 -9 3 -18 0 -21 -6 -6 -45 27 -45 39 0 13 38 -3 45
-18z m510 -13 c3 -6 -1 -7 -9 -4 -18 7 -21 14 -7 14 6 0 13 -4 16 -10z m-45
-70 c0 -15 -12 -12 -37 9 -32 27 -28 34 7 16 17 -9 30 -20 30 -25z m734 8 c3
-13 6 -32 6 -44 0 -12 9 -31 20 -44 11 -13 20 -32 20 -44 0 -12 3 -31 6 -43 4
-13 2 -23 -4 -23 -5 0 -12 9 -15 21 -4 13 -10 18 -17 14 -9 -5 -11 -40 -9
-114 l4 -106 -24 3 c-14 1 -26 4 -29 6 -2 2 2 30 8 63 15 75 20 211 9 242 -10
25 -2 91 11 91 4 0 10 -10 14 -22z m-774 -203 c6 -44 18 -112 26 -152 7 -40
14 -104 14 -144 0 -62 -2 -70 -15 -59 -9 7 -15 29 -15 54 0 22 -11 115 -24
205 -13 91 -22 171 -19 178 11 27 23 -3 33 -82z m-130 -23 c5 -100 -1 -129
-15 -74 -13 47 -13 183 -1 179 7 -2 13 -45 16 -105z m-110 29 c0 -11 9 -38 20
-62 22 -50 28 -121 8 -101 -11 11 -21 41 -47 137 -4 17 -6 36 -4 43 6 17 23 5
23 -17z m879 -83 c-1 -13 -5 -34 -9 -48 -7 -20 -8 -16 -9 23 -1 26 4 47 9 47
6 0 10 -10 9 -22z m52 -195 c-13 -29 -31 -30 -31 -3 0 11 -7 23 -16 27 -13 5
-12 8 5 27 11 11 23 35 27 51 8 28 9 26 16 -25 6 -34 5 -63 -1 -77z m-71 -170
c0 -6 -5 -24 -11 -40 l-10 -28 -16 33 c-15 30 -14 34 2 52 14 16 20 17 27 8 4
-7 8 -18 8 -25z m-39 -136 c-13 -13 -15 1 -4 30 7 17 8 17 11 -1 2 -10 -1 -23
-7 -29z m-102 -65 c-11 -23 -13 -24 -17 -9 -2 11 -1 35 3 55 l8 37 9 -28 c8
-21 7 -36 -3 -55z m-199 -371 c0 -5 -7 -14 -15 -21 -16 -14 -18 -10 -9 14 6
17 24 22 24 7z m-103 -183 c-3 -8 -6 -5 -6 6 -1 11 2 17 5 13 3 -3 4 -12 1
-19z m-237 -77 c0 -13 -50 -71 -61 -71 -6 0 5 18 22 40 34 42 39 46 39 31z
m419 -77 c24 -30 19 -49 -10 -34 -16 9 -49 58 -49 75 0 12 39 -15 59 -41z
m-99 -30 c0 -8 -4 -12 -10 -9 -5 3 -10 13 -10 21 0 8 5 12 10 9 6 -3 10 -13
10 -21z m-71 -48 c6 -22 9 -42 6 -44 -7 -7 -35 56 -35 80 0 31 16 11 29 -36z
m-575 -7 c-24 -27 -30 -15 -9 18 12 17 20 23 23 15 2 -7 -4 -22 -14 -33z m666
21 c0 -5 -4 -10 -10 -10 -5 0 -10 5 -10 10 0 6 5 10 10 10 6 0 10 -4 10 -10z
m327 -26 c-3 -3 -12 -4 -19 -1 -8 3 -5 6 6 6 11 1 17 -2 13 -5z m157 -22 c5
-2 2 -9 -6 -13 -16 -9 -68 10 -68 24 0 8 56 0 74 -11z m229 -34 c76 -16 48
-20 -53 -6 -60 8 -86 14 -74 19 20 8 46 5 127 -13z m-1207 -4 c-3 -9 -6 -18
-6 -20 0 -2 -4 -4 -9 -4 -5 0 -7 9 -4 20 3 11 10 20 15 20 6 0 7 -7 4 -16z
m597 2 c26 -20 21 -26 -23 -26 -38 0 -39 1 -28 20 15 23 26 25 51 6z m197 -6
c12 -8 9 -10 -12 -10 -16 0 -28 5 -28 10 0 13 20 13 40 0z m-501 -43 c12 -24
21 -47 21 -52 0 -4 18 -23 40 -42 41 -36 52 -63 24 -63 -36 0 -134 149 -121
183 9 24 13 22 36 -26z m122 -24 c36 -39 41 -48 26 -51 -29 -6 -44 4 -77 49
-61 85 -27 86 51 2z m695 37 c84 -10 183 -24 220 -31 172 -30 -93 -26 -306 5
-66 9 -86 16 -88 29 -4 21 -9 21 174 -3z m-941 -54 c-22 -107 -19 -138 20
-184 19 -23 22 -32 12 -39 -20 -16 -165 -93 -175 -93 -4 0 -14 40 -21 89 l-13
90 31 64 c41 86 71 112 41 36 -18 -45 -20 -65 -15 -124 14 -135 45 -141 38 -8
-5 80 -4 90 16 107 11 11 21 25 21 33 0 25 30 74 41 67 7 -4 8 -19 4 -38z
m320 33 c11 -17 -1 -21 -15 -4 -8 9 -8 15 -2 15 6 0 14 -5 17 -11z m1015 -3
c0 -12 -7 -13 -31 -6 -46 13 -48 20 -6 20 25 0 37 -4 37 -14z m-620 -31 c219
-16 287 -34 134 -36 -49 0 -146 -3 -215 -5 -116 -4 -128 -2 -153 17 -14 11
-26 25 -26 30 0 12 19 12 260 -6z m550 -5 c0 -5 -4 -10 -10 -10 -5 0 -10 5
-10 10 0 6 5 10 10 10 6 0 10 -4 10 -10z m-1159 -73 c12 -15 20 -29 18 -30 -2
-1 -14 -11 -26 -21 -23 -19 -23 -19 -38 17 -8 20 -15 53 -15 74 l1 38 19 -25
c10 -14 29 -38 41 -53z m299 43 c0 -5 -9 -6 -20 -3 -11 3 -17 9 -15 14 7 10
35 1 35 -11z m1675 0 c8 -13 -5 -13 -25 0 -13 8 -13 10 2 10 9 0 20 -4 23 -10z
m230 -21 c12 -5 -9 -6 -50 -3 -38 4 -77 10 -85 15 -19 11 108 -1 135 -12z m80
-19 c3 -5 1 -10 -4 -10 -6 0 -11 5 -11 10 0 6 2 10 4 10 3 0 8 -4 11 -10z
m295 -20 c56 -11 109 -20 118 -20 9 -1 31 -7 47 -15 l30 -15 -45 4 c-52 4
-223 40 -260 55 -41 16 -1 13 110 -9z m-2515 -69 c-7 -13 -62 -24 -75 -16 -20
12 1 25 41 25 22 0 38 -4 34 -9z m205 5 c0 -3 -26 -10 -57 -16 -32 -7 -63 -15
-70 -17 -8 -3 -13 3 -13 16 0 19 5 21 70 21 39 0 70 -2 70 -4z m-575 -111 c8
-58 1 -105 -15 -105 -6 0 -10 34 -10 80 0 92 15 107 25 25z m3625 -60 c14 -8
19 -14 10 -14 -8 0 -26 6 -40 14 -14 8 -19 14 -10 14 8 0 26 -6 40 -14z m197
-48 c16 -16 15 -17 -15 -17 -65 0 -142 48 -100 62 17 6 95 -25 115 -45z m166
-67 c97 -41 152 -70 185 -98 16 -13 -32 5 -113 44 -128 60 -172 84 -151 84 4
0 40 -14 79 -30z m252 -130 c3 -5 1 -10 -4 -10 -6 0 -11 5 -11 10 0 6 2 10 4
10 3 0 8 -4 11 -10z m-3768 -1612 c-3 -8 -6 -5 -6 6 -1 11 2 17 5 13 3 -3 4
-12 1 -19z m-3 -43 c-4 -8 -8 -15 -10 -15 -2 0 -4 7 -4 15 0 8 4 15 10 15 5 0
7 -7 4 -15z m-258 -196 c21 -167 32 -218 59 -274 17 -36 27 -81 35 -160 6 -60
15 -127 19 -147 13 -57 -5 -46 -24 15 -9 28 -25 75 -35 102 -52 139 -78 245
-83 330 -5 88 2 260 10 251 2 -2 11 -55 19 -117z m297 -544 c8 -129 -3 -123
-32 19 -18 91 -19 98 -3 114 16 17 17 16 23 -3 3 -11 9 -69 12 -130z m-168
-95 c3 -5 1 -10 -4 -10 -6 0 -11 5 -11 10 0 6 2 10 4 10 3 0 8 -4 11 -10z
m5979 -459 c7 -11 -17 -21 -51 -21 -21 0 -24 2 -13 15 14 16 56 20 64 6z
m-234 -41 c-61 -8 -417 -14 -450 -9 -42 7 129 16 310 16 143 0 185 -2 140 -7z
m348 1 c10 -6 8 -10 -10 -14 -34 -10 -38 -9 -32 8 7 17 22 19 42 6z m-78 -31
c-20 -13 -43 -13 -35 0 3 6 16 10 28 10 18 0 19 -2 7 -10z m-895 -15 c28 -2
73 -8 100 -13 l50 -8 -53 -8 c-35 -5 -57 -15 -66 -28 -12 -17 -21 -19 -55 -13
-34 6 -49 2 -93 -23 -29 -16 -79 -37 -111 -46 -32 -9 -84 -30 -116 -46 -31
-16 -83 -36 -115 -44 -33 -9 -68 -22 -80 -29 -32 -21 -116 -47 -150 -47 -43 0
-154 -29 -200 -52 -42 -22 -309 -81 -301 -68 3 5 38 21 78 36 107 40 133 54
116 65 -7 4 -32 5 -55 2 -32 -4 -42 -2 -47 11 -3 8 -2 18 4 22 5 3 92 10 192
15 210 11 341 37 507 100 153 59 230 104 230 135 0 7 12 22 27 34 21 16 35 20
58 15 16 -3 53 -8 80 -10z m815 5 c0 -5 -21 -10 -47 -9 -36 0 -43 3 -28 9 28
12 75 12 75 0z m-211 -14 c-2 -2 -20 -7 -39 -11 -24 -5 -32 -4 -25 3 6 6 21
12 35 14 25 4 37 1 29 -6z m-181 -2 c12 -4 22 -10 22 -14 0 -9 -147 -20 -182
-13 -51 10 -29 22 45 26 39 1 77 4 82 5 6 1 20 -1 33 -4z m59 -10 c-3 -3 -12
-4 -19 -1 -8 3 -5 6 6 6 11 1 17 -2 13 -5z m-3940 -340 c-3 -3 -12 -4 -19 -1
-8 3 -5 6 6 6 11 1 17 -2 13 -5z m267 -29 c87 -8 161 -16 163 -19 3 -3 1 -17
-4 -33 -17 -50 -69 -44 -305 33 -60 20 -108 37 -108 39 0 2 21 2 48 -1 26 -2
118 -11 206 -19z m496 -5 c-57 -20 -99 -25 -86 -12 14 14 71 30 106 30 33 0
32 -1 -20 -18z m1460 10 c0 -10 -68 -26 -77 -17 -3 3 10 10 28 16 45 12 49 13
49 1z m-120 -29 c-8 -6 -36 -13 -62 -16 -53 -8 -70 -20 -35 -28 35 -8 149 0
180 12 44 17 67 13 32 -6 -58 -31 -222 -58 -370 -61 -144 -3 -335 -15 -335
-22 0 -8 43 -27 75 -32 11 -2 -16 -7 -60 -11 -44 -4 -94 -10 -112 -13 -29 -5
-32 -4 -35 23 l-3 28 -212 0 c-116 0 -213 2 -216 5 -3 3 -7 21 -9 40 l-3 35
95 -3 c52 -1 133 -10 180 -19 118 -24 282 -21 445 7 72 12 146 29 165 37 50
21 311 43 280 24z m-1500 -16 c0 -7 -61 -37 -66 -32 -13 13 11 37 37 37 16 0
29 -2 29 -5z m221 -83 c35 -35 49 -58 54 -87 3 -22 11 -48 16 -58 7 -13 7 -23
0 -31 -6 -7 -9 -15 -6 -18 9 -9 -24 -89 -49 -119 -14 -16 -30 -55 -38 -86
l-13 -58 -2 40 c-2 22 -6 60 -9 85 l-6 45 -24 -28 c-14 -17 -24 -41 -24 -60 0
-18 -9 -52 -20 -76 -24 -52 -25 -74 -5 -91 13 -10 10 -18 -21 -56 -39 -48 -41
-75 -5 -84 23 -5 23 -5 4 -28 -16 -20 -22 -22 -46 -13 -24 9 -26 13 -17 32 13
24 8 34 -15 26 -8 -4 -15 -16 -15 -27 0 -12 -4 -19 -8 -16 -5 3 -6 24 -3 48 6
41 8 43 39 40 37 -3 52 19 33 49 -9 15 -8 27 4 55 8 20 15 45 15 56 0 23 -29
36 -40 18 -4 -7 -15 -10 -24 -7 -12 5 -16 20 -16 59 0 75 -21 141 -74 237 -53
94 -57 78 40 147 32 22 68 38 95 41 36 5 42 3 32 -8 -7 -7 -13 -32 -13 -56 0
-35 3 -43 19 -43 15 0 20 10 25 52 9 64 11 68 43 68 18 0 41 -15 74 -48z m539
-71 c0 -13 -27 -21 -68 -20 l-37 1 30 13 c34 16 75 19 75 6z m-307 -7 c60 -10
43 -25 -25 -22 -38 2 -63 8 -66 16 -4 13 29 16 91 6z m420 -60 c-50 -266 -73
-427 -73 -516 0 -32 -4 -58 -10 -58 -5 0 -10 10 -10 23 -1 12 -3 58 -6 102 -4
58 0 107 15 180 11 55 25 130 31 167 13 85 27 121 43 115 6 -2 11 -8 10 -13z
m-146 -16 c-3 -7 -18 -64 -33 -126 -15 -62 -29 -111 -31 -109 -6 7 16 194 27
221 5 14 17 26 26 26 8 0 13 -6 11 -12z m50 -20 c-3 -7 -5 -2 -5 12 0 14 2 19
5 13 2 -7 2 -19 0 -25z m-153 -35 c-21 -195 -64 -391 -98 -443 -26 -41 -60
-123 -85 -206 -17 -58 -18 -59 -52 -56 -19 2 -47 7 -64 12 -40 13 -87 -1 -101
-29 -7 -12 -16 -27 -22 -33 -6 -6 -8 -26 -5 -44 4 -26 2 -34 -10 -34 -28 0
-27 21 18 365 26 198 41 263 68 303 14 21 38 77 54 125 l28 86 40 4 c22 2 84
4 138 5 l97 2 -6 -57z m112 -187 c-14 -96 -31 -113 -21 -22 7 74 13 96 24 96
4 0 2 -33 -3 -74z m-83 -178 c-4 -55 -11 -97 -19 -103 -18 -15 -51 -116 -74
-230 -19 -93 -40 -145 -40 -99 0 43 32 198 45 218 8 12 16 42 18 66 2 25 11
59 20 77 9 17 22 61 29 97 7 36 16 66 20 66 4 0 4 -42 1 -92z m64 35 c-3 -10
-5 -4 -5 12 0 17 2 24 5 18 2 -7 2 -21 0 -30z m-740 -25 c-3 -8 -6 -5 -6 6 -1
11 2 17 5 13 3 -3 4 -12 1 -19z m730 -105 c-2 -16 -4 -3 -4 27 0 30 2 43 4 28
2 -16 2 -40 0 -55z m-533 38 c3 -5 -1 -14 -9 -21 -12 -10 -18 -10 -30 0 -8 7
-15 16 -15 21 0 12 47 12 54 0z m607 -136 c-1 -15 -24 -12 -29 3 -3 9 2 13 12
10 10 -1 17 -7 17 -13z m-771 -49 c0 -25 5 -48 11 -51 13 -9 -36 -35 -65 -35
-40 0 -50 15 -22 34 31 20 33 41 6 56 -38 20 -20 36 43 39 26 1 27 -1 27 -43z
m624 -131 c-11 -44 -13 -84 -8 -151 5 -64 3 -97 -6 -113 -43 -81 -42 165 2
379 l12 55 7 -55 c6 -38 4 -73 -7 -115z m-546 118 c-2 -10 -13 -19 -26 -21
-24 -4 -29 7 -10 26 18 18 40 15 36 -5z m-333 -12 c9 -16 -35 -35 -48 -22 -9
9 -8 14 3 21 19 12 37 13 45 1z m958 -141 c-8 -39 -8 -49 1 -85 8 -33 -7 -32
-22 0 -15 34 -15 110 0 177 l13 53 8 -55 c4 -30 5 -71 0 -90z m115 90 c34 -32
55 -69 66 -112 10 -43 -9 -34 -55 27 -23 30 -48 55 -55 55 -9 0 -14 11 -14 30
0 38 18 39 58 0z m-733 -94 c-17 -12 -41 -146 -31 -172 3 -8 15 -14 26 -14 27
0 34 -20 21 -66 -6 -22 -11 -93 -12 -159 l-2 -120 -35 -33 c-62 -60 -162 -95
-162 -57 0 15 6 21 53 56 15 11 32 30 38 41 11 20 9 21 -21 14 -18 -3 -47 -19
-66 -35 -18 -17 -50 -33 -69 -37 -38 -7 -55 -28 -55 -67 0 -52 -164 -167 -238
-167 -10 0 -27 -6 -38 -14 -11 -8 -38 -18 -60 -22 -21 -4 -53 -13 -71 -20 -38
-16 -47 -7 -32 32 15 40 28 45 59 23 34 -26 60 -16 60 22 0 20 8 34 26 45 24
16 26 16 40 -5 8 -11 26 -21 38 -21 26 0 43 27 26 44 -18 18 -11 30 30 54 l40
23 0 -21 c0 -17 5 -21 28 -18 22 2 27 8 27 31 0 17 7 32 18 38 17 10 23 40 10
53 -14 13 -31 86 -22 91 5 3 20 -1 33 -10 35 -23 80 -16 84 12 2 16 -4 26 -22
35 -31 13 -34 34 -6 43 22 7 60 51 60 70 0 10 -9 9 -41 -2 -23 -7 -43 -12 -45
-10 -2 2 1 18 7 35 8 25 19 34 49 42 40 11 66 33 56 48 -3 6 -22 13 -41 16
-28 6 -35 11 -35 31 0 38 10 57 25 45 8 -7 27 -4 64 11 58 25 74 20 43 -14
-29 -31 -37 -70 -18 -86 14 -12 14 -15 -4 -30 -15 -13 -19 -32 -22 -98 l-3
-81 37 -36 c41 -40 52 -36 63 27 5 26 12 37 25 37 29 0 40 24 43 96 2 55 -1
69 -13 69 -8 0 -18 -15 -23 -37 -6 -23 -15 -38 -24 -38 -11 0 -13 5 -8 18 5 9
11 40 14 68 4 29 13 59 20 68 10 11 11 34 6 84 l-7 69 31 13 c17 7 32 20 32
29 1 9 4 6 6 -7 3 -14 -2 -28 -12 -36z m-400 34 c-3 -5 -17 -10 -31 -10 -13 0
-24 5 -24 10 0 6 14 10 31 10 17 0 28 -4 24 -10z m265 -38 c0 -15 4 -32 9 -37
6 -6 -14 -11 -55 -13 -69 -3 -74 1 -54 52 8 23 15 26 55 26 43 0 45 -1 45 -28z
m353 22 c46 -8 49 -24 3 -24 -40 0 -66 8 -66 21 0 11 12 11 63 3z m-653 -44
c0 -5 -4 -10 -10 -10 -5 0 -10 5 -10 10 0 6 5 10 10 10 6 0 10 -4 10 -10z
m1367 -94 c-7 -18 -42 -22 -53 -5 -3 6 0 22 7 35 13 24 13 25 32 5 11 -11 17
-26 14 -35z m-1452 33 c9 -14 7 -15 -52 -22 -59 -7 -70 3 -20 20 44 14 65 15
72 2z m-255 -15 c0 -2 -11 -4 -25 -4 -14 0 -25 4 -25 9 0 4 11 6 25 3 14 -2
25 -6 25 -8z m939 -9 l25 -12 -23 -12 c-28 -15 -14 -36 29 -44 21 -5 33 -16
44 -40 8 -19 19 -38 25 -41 10 -7 4 -36 -8 -36 -4 0 -15 14 -24 30 -10 17 -24
30 -32 30 -25 0 -105 110 -105 145 0 8 36 -3 69 -20z m272 -18 c-10 -31 -17
-35 -67 -46 -31 -7 -58 -10 -61 -8 -10 11 8 25 40 31 18 3 46 20 62 36 34 36
41 33 26 -13z m-148 22 l32 -1 -30 -13 c-39 -18 -75 -19 -75 -2 0 19 12 29 28
22 7 -3 28 -5 45 -6z m-969 -98 c5 -8 -113 -25 -122 -17 -2 3 -1 9 3 15 7 13
111 15 119 2z m845 -106 c65 -68 81 -91 81 -115 0 -42 -28 -40 -67 5 -35 40
-57 44 -75 15 -20 -31 -31 -24 -25 16 5 28 1 43 -13 61 -14 18 -17 30 -10 42
5 10 5 23 -1 32 -13 21 -11 29 10 29 10 0 55 -38 100 -85z m-1490 -25 c24 0
24 0 5 -21 -16 -17 -16 -22 -4 -30 11 -6 20 -3 32 12 10 12 15 25 12 30 -8 13
10 11 23 -2 9 -9 18 -8 37 5 26 17 71 22 80 8 2 -4 -8 -21 -23 -38 -23 -25
-38 -32 -84 -37 -72 -7 -135 -35 -181 -82 -30 -29 -40 -35 -49 -25 -9 10 -9
14 1 17 32 12 82 67 92 101 15 54 14 55 -30 49 -22 -3 -40 -1 -40 3 0 13 31
19 70 14 19 -2 46 -4 59 -4z m325 -18 c7 -11 -5 -27 -31 -41 -31 -16 -43 -14
-43 9 0 29 59 55 74 32z m124 -14 c13 -17 -3 -58 -22 -58 -25 0 -46 12 -46 26
0 8 6 14 14 14 8 0 16 7 20 15 7 18 20 19 34 3z m133 -42 l34 -14 -28 -11
c-40 -15 -100 -14 -95 2 4 9 42 36 54 37 1 0 17 -6 35 -14z m323 -17 c-9 -10
-21 -19 -26 -19 -15 0 -8 29 9 39 26 14 37 2 17 -20z m-176 -5 c28 -8 29 -24
1 -24 -29 0 -80 -32 -75 -46 3 -7 -7 -14 -22 -17 -94 -20 -171 -39 -195 -49
-25 -10 -28 -15 -26 -49 2 -21 0 -41 -4 -45 -26 -26 31 -66 65 -45 10 6 24 11
33 11 8 0 12 6 9 14 -4 10 5 16 25 21 35 7 43 38 14 50 -13 4 -26 -3 -45 -26
-31 -37 -42 -27 -36 33 3 31 6 33 44 36 32 2 48 -2 72 -22 21 -18 42 -26 68
-26 56 0 84 10 84 29 0 9 7 24 14 33 12 17 15 16 42 -7 16 -14 40 -25 53 -25
38 0 8 -26 -57 -50 -112 -40 -149 -63 -159 -95 -8 -29 -14 -31 -133 -61 -242
-61 -744 -112 -757 -77 -3 8 -4 16 -2 18 3 2 52 13 109 25 58 12 112 28 120
35 10 9 42 15 83 16 37 1 67 5 67 8 0 3 -9 12 -21 19 -17 11 -18 16 -8 28 10
12 8 17 -6 28 -25 18 -3 29 29 15 29 -14 33 -24 11 -33 -23 -8 -18 -24 13 -39
31 -16 117 -14 184 3 l43 12 -23 18 c-26 22 -28 37 -5 62 17 19 16 20 -7 38
-17 13 -22 22 -15 29 10 9 173 74 283 112 29 10 62 25 74 34 25 17 25 17 56 9z
m-488 -24 c-8 -6 -33 -15 -55 -21 -22 -5 -49 -13 -60 -16 -36 -10 -1 17 41 32
47 17 97 20 74 5z m601 -3 c-1 -12 -15 -9 -19 4 -3 6 1 10 8 8 6 -3 11 -8 11
-12z m-482 -23 c-36 -20 -48 -16 -19 5 13 11 29 17 34 14 5 -3 -2 -12 -15 -19z
m-351 -5 c-2 -6 -8 -10 -13 -10 -5 0 -11 4 -13 10 -2 6 4 11 13 11 9 0 15 -5
13 -11z m702 -13 c0 -11 -19 -15 -25 -6 -3 5 1 10 9 10 9 0 16 -2 16 -4z
m-940 -92 c-12 -32 -6 -44 24 -44 33 0 37 9 20 42 l-15 28 166 -2 c104 -2 164
-7 163 -13 -2 -5 -15 -9 -30 -7 -19 2 -30 -3 -37 -17 -6 -11 -23 -26 -38 -33
-54 -27 -58 -72 -3 -51 16 6 31 8 34 5 11 -11 -17 -32 -43 -32 -15 0 -37 -7
-49 -16 -14 -9 -30 -13 -44 -8 -21 6 -21 7 5 26 15 11 34 33 42 49 14 26 13
30 -9 56 -21 23 -28 26 -43 17 -10 -6 -18 -23 -18 -39 -1 -24 -7 -30 -45 -41
-52 -16 -90 -18 -90 -5 0 5 -18 12 -40 16 -33 6 -40 11 -40 30 0 27 -24 49
-45 41 -18 -6 -20 -37 -3 -54 19 -19 6 -22 -40 -10 -34 8 -42 15 -42 34 0 12
5 26 11 30 15 9 103 21 166 23 52 1 52 1 43 -25z m486 12 c4 -3 -16 -140 -21
-144 -3 -3 -22 3 -43 13 l-37 18 35 12 c46 15 52 43 12 51 -28 6 -29 8 -19 34
10 25 15 28 41 23 17 -3 32 -6 32 -7z m-774 -66 c-2 -25 -5 -53 -8 -62 -5 -17
-6 -17 -29 0 -14 9 -25 27 -25 40 0 13 -6 22 -16 22 -9 0 -14 6 -12 13 6 17
49 38 73 35 17 -3 19 -9 17 -48z m175 -114 c15 -13 26 -27 23 -29 -8 -9 -100
35 -94 44 10 16 43 9 71 -15z m138 -24 c-6 -7 -35 18 -35 31 0 5 9 2 20 -8 11
-10 18 -20 15 -23z m689 -68 c28 -11 17 -24 -19 -24 -33 0 -43 8 -28 23 8 9
27 9 47 1z m-134 -30 c0 -4 -7 -12 -17 -19 -24 -18 -9 -45 26 -45 16 0 65 7
108 15 43 8 80 15 83 15 3 0 -8 -9 -24 -19 -35 -23 -121 -35 -188 -26 -41 6
-53 12 -69 39 -10 17 -19 34 -19 39 0 4 23 7 50 7 28 0 50 -3 50 -6z m-539
-40 c31 6 31 6 17 -17 -13 -18 -28 -23 -84 -28 -38 -4 -71 -5 -73 -3 -2 2 8
17 23 34 14 17 26 36 26 41 0 5 13 0 29 -12 22 -16 38 -20 62 -15z m348 22 c9
-11 8 -15 -5 -20 -20 -8 -34 1 -34 20 0 18 24 18 39 0z m-174 -36 c10 -11 24
-20 32 -20 7 0 13 -4 13 -8 0 -11 -69 -32 -101 -32 -21 1 -22 2 -6 11 18 11
24 49 6 49 -5 0 -7 5 -4 10 10 16 41 11 60 -10z"/>
<path d="M2540 6054 c0 -29 16 -64 30 -64 14 0 12 34 -2 65 -15 32 -28 32 -28
-1z"/>
<path d="M4962 2028 c-18 -18 -16 -88 3 -88 19 0 37 35 33 67 -3 30 -18 39
-36 21z"/>
<path d="M5120 1971 c-5 -11 -10 -36 -10 -55 0 -29 -11 -49 -55 -101 -45 -52
-54 -70 -49 -90 10 -40 30 -50 48 -23 9 12 16 30 16 39 0 9 20 38 45 64 25 27
47 57 51 67 3 10 11 18 19 18 18 0 29 35 21 66 -8 30 -21 31 -31 2 -8 -22 -8
-22 -12 5 -5 31 -28 36 -43 8z"/>
<path d="M4994 1906 c-8 -21 -1 -61 11 -60 18 2 35 47 23 61 -14 17 -27 16
-34 -1z"/>
<path d="M5044 635 c-4 -8 -1 -22 6 -30 16 -19 40 -2 40 26 0 23 -38 26 -46 4z"/>
<path d="M2405 9140 c-3 -6 18 -36 48 -68 29 -31 81 -91 114 -132 34 -41 107
-127 163 -190 56 -63 136 -167 178 -230 41 -63 109 -152 149 -198 70 -78 89
-121 64 -136 -5 -4 -41 33 -80 81 -38 49 -90 111 -115 138 -25 28 -45 55 -46
61 0 6 -15 28 -33 50 -18 21 -52 65 -76 97 -25 32 -53 65 -64 72 -12 8 -37 35
-56 59 -197 247 -261 315 -312 331 -41 13 -33 -8 22 -59 31 -28 90 -91 132
-141 41 -49 114 -135 161 -190 48 -55 99 -118 113 -140 15 -22 43 -58 63 -80
20 -22 43 -49 51 -61 8 -12 46 -63 85 -115 111 -149 107 -139 88 -185 -29 -68
-1 -174 46 -174 29 0 36 44 16 100 -11 31 -14 57 -10 76 l8 29 8 -32 c8 -31
30 -44 43 -24 3 5 0 30 -7 55 -13 50 -7 66 17 46 12 -10 19 -10 27 -2 9 9 8
26 -3 69 -15 57 -19 62 -76 83 -18 7 -33 18 -33 25 0 6 -10 16 -23 22 -23 11
-33 23 -132 178 -57 87 -119 162 -255 310 -36 38 -79 90 -95 115 -32 50 -147
170 -163 170 -6 0 -14 -5 -17 -10z"/>
<path d="M2234 9046 c-3 -8 22 -41 62 -82 37 -38 79 -85 93 -104 24 -33 70
-86 208 -241 28 -31 63 -75 77 -96 14 -21 57 -81 96 -133 38 -52 83 -116 98
-142 20 -36 31 -46 45 -42 10 3 29 -1 42 -10 30 -20 35 -20 35 0 0 8 -34 47
-76 87 -42 39 -91 94 -109 122 -18 27 -53 83 -80 124 -26 41 -70 98 -98 126
-61 60 -145 155 -232 263 -64 79 -128 142 -146 142 -5 0 -12 -6 -15 -14z"/>
<path d="M905 7870 c3 -5 11 -10 16 -10 6 0 7 5 4 10 -3 6 -11 10 -16 10 -6 0
-7 -4 -4 -10z"/>
<path d="M2128 6339 c-45 -25 -208 -300 -243 -409 -4 -13 -18 -23 -36 -27 -16
-3 -29 -11 -29 -18 0 -6 -31 -77 -69 -156 -38 -79 -85 -184 -104 -234 -36 -89
-127 -414 -166 -592 -22 -97 -28 -193 -12 -193 9 0 14 18 27 95 17 104 107
448 166 635 40 125 195 438 225 455 28 16 39 33 103 160 53 106 104 192 155
262 18 24 8 36 -17 22z"/>
<path d="M1928 6192 c-24 -26 -63 -74 -85 -108 -54 -80 -172 -306 -167 -320 5
-12 -94 -187 -108 -192 -4 -2 -8 -10 -8 -17 0 -8 -20 -68 -45 -135 -79 -211
-137 -485 -106 -504 15 -9 27 24 35 99 13 111 48 246 97 374 51 130 130 293
156 323 8 9 12 21 9 26 -13 21 91 204 125 222 10 6 19 17 19 24 0 18 57 124
90 166 66 85 58 117 -12 42z"/>
<path d="M1743 6106 c-21 -24 -66 -94 -101 -155 -35 -61 -67 -113 -73 -116 -5
-4 -9 -14 -9 -24 0 -10 -11 -39 -25 -65 -24 -46 -33 -86 -17 -86 4 0 23 25 42
56 19 31 43 63 53 72 9 9 17 22 17 30 0 17 54 123 96 189 81 126 91 183 17 99z"/>
<path d="M4110 6075 c-15 -18 -8 -21 70 -30 30 -3 110 -19 178 -36 67 -16 127
-27 132 -24 5 3 6 13 3 22 -5 13 -2 15 23 8 16 -4 34 -8 39 -10 6 -1 17 -5 25
-8 31 -14 338 -79 415 -88 93 -12 147 -25 267 -68 58 -21 96 -29 113 -25 69
17 620 -146 792 -235 44 -23 83 -41 88 -41 5 0 62 -30 128 -67 93 -53 114 -69
96 -71 -31 -5 -46 -19 -33 -32 6 -6 37 -17 69 -25 33 -9 66 -22 75 -29 8 -7
48 -23 87 -36 40 -12 78 -29 85 -38 7 -9 9 -13 3 -10 -5 3 -89 31 -185 62
-155 49 -181 61 -220 97 -25 23 -35 36 -23 30 16 -8 24 -8 29 0 11 19 -18 37
-147 95 -170 76 -247 105 -254 93 -7 -11 2 -29 16 -29 13 0 292 -120 303 -131
18 -16 -18 -10 -54 10 -50 26 -273 101 -302 101 -13 0 -29 5 -35 11 -13 13
-122 59 -140 59 -7 0 -53 14 -103 30 -104 34 -110 35 -110 15 0 -11 -19 -6
-77 24 -95 47 -294 114 -325 108 -19 -3 -15 -7 26 -26 27 -13 77 -31 111 -41
34 -10 135 -54 226 -98 157 -76 363 -162 391 -162 7 0 42 -17 78 -36 36 -20
87 -48 115 -61 60 -30 212 -130 221 -145 5 -7 -4 -9 -27 -4 -19 3 -61 9 -94
12 -45 5 -65 12 -80 30 -40 46 -475 194 -643 219 -117 17 -203 16 -210 -3 -2
-6 9 -14 25 -17 198 -44 315 -89 167 -65 -78 13 -84 13 -84 -5 0 -17 14 -20
125 -35 44 -6 134 -24 200 -41 66 -17 136 -31 155 -30 19 0 62 -8 95 -19 33
-10 74 -24 90 -29 27 -8 23 -10 -29 -10 -77 -1 -382 43 -514 74 -122 29 -122
29 -122 10 0 -16 86 -45 136 -45 17 0 45 -7 60 -15 16 -8 41 -15 56 -15 42 0
75 -16 93 -47 9 -15 33 -36 53 -45 81 -38 432 -305 432 -329 0 -13 -124 41
-147 64 -25 25 -47 41 -197 139 -60 39 -137 81 -170 93 -34 12 -92 38 -131 57
-38 19 -96 45 -127 57 -42 17 -58 28 -58 42 0 13 -22 33 -62 59 -33 22 -64 40
-68 40 -5 0 -21 12 -38 28 -29 27 -105 71 -232 135 -36 17 -71 38 -78 45 -15
13 -52 17 -52 4 0 -4 20 -19 44 -33 306 -170 387 -224 372 -247 -12 -20 -75
-14 -109 11 -17 12 -54 46 -82 75 -44 44 -72 61 -171 103 -156 66 -517 195
-571 204 -40 6 -70 25 -41 25 94 0 510 -35 598 -51 63 -11 144 -24 179 -30 86
-13 111 -20 111 -30 0 -5 -9 -9 -20 -9 -25 0 -26 -17 -2 -24 31 -9 245 -36
345 -44 121 -10 161 5 64 23 -21 4 -43 13 -50 19 -34 33 -86 60 -195 101 -67
25 -126 45 -132 45 -5 0 -49 14 -98 30 -124 43 -372 113 -379 106 -16 -16 13
-35 79 -52 40 -10 65 -20 56 -22 -28 -6 -164 26 -208 48 -40 20 -70 26 -70 13
1 -5 13 -23 29 -41 23 -27 39 -34 92 -43 35 -6 66 -12 68 -15 3 -3 -89 -5
-204 -4 -322 2 -305 3 -298 -17 5 -12 2 -15 -10 -10 -64 24 -272 53 -281 39
-10 -16 6 -22 98 -37 116 -18 276 -56 276 -64 0 -19 -230 12 -332 46 -60 19
-177 30 -163 15 6 -6 39 -16 75 -23 36 -6 97 -22 135 -35 99 -32 311 -81 371
-87 48 -4 123 -41 110 -55 -11 -10 -211 31 -230 47 -15 13 -42 16 -160 13
-212 -4 -353 -24 -318 -46 5 -3 92 1 193 9 160 12 191 12 239 0 30 -8 123 -31
205 -50 83 -20 172 -43 199 -50 26 -8 55 -15 62 -15 8 0 14 -5 14 -11 0 -7 -7
-8 -17 -4 -23 10 -123 19 -123 12 0 -8 106 -42 240 -77 278 -74 349 -90 420
-95 41 -4 95 -13 119 -22 l43 -15 -21 -21 c-19 -20 -24 -20 -53 -8 -76 32
-163 59 -171 54 -18 -11 19 -33 116 -68 56 -21 127 -50 157 -65 30 -15 85 -37
123 -49 37 -13 67 -27 67 -32 0 -13 2 -13 -134 31 -68 22 -134 39 -147 39 -13
-1 -69 24 -124 55 -55 31 -104 56 -109 56 -17 0 17 -30 68 -61 62 -37 169
-107 264 -173 94 -64 115 -54 29 13 -37 30 -66 55 -64 57 11 11 476 -177 607
-247 59 -31 16 -21 -88 20 -125 50 -220 81 -246 81 -33 0 -8 -13 164 -81 85
-34 166 -70 180 -79 14 -9 45 -24 70 -34 25 -10 79 -33 120 -51 41 -18 93 -38
115 -45 22 -7 68 -25 103 -41 72 -33 90 -35 99 -13 7 19 -64 94 -217 228 -116
103 -302 253 -375 304 -26 18 -45 35 -42 38 10 10 329 -145 348 -170 10 -13
36 -30 57 -37 67 -21 295 -109 362 -139 36 -16 95 -42 133 -59 41 -18 67 -36
67 -45 0 -9 -5 -16 -11 -16 -6 0 -88 32 -182 70 -168 69 -204 80 -192 60 7
-12 179 -100 194 -100 21 0 430 -199 501 -243 98 -62 297 -162 365 -183 70
-23 89 -15 80 32 -5 28 -3 34 7 28 168 -97 515 -349 664 -481 113 -101 212
-173 264 -196 19 -8 95 -62 168 -121 73 -58 144 -109 158 -112 31 -8 48 7 40
34 -7 21 -266 273 -343 334 -23 18 -75 62 -115 97 -72 63 -196 168 -398 339
-136 115 -300 235 -343 251 -27 11 -190 132 -237 177 -20 19 -39 34 -42 34 -4
0 -51 30 -105 66 -54 36 -128 84 -166 106 -132 79 -82 74 89 -8 61 -30 118
-54 126 -54 8 0 18 -4 23 -8 19 -17 174 -74 192 -70 24 4 28 40 9 75 -8 15
-66 84 -128 153 -95 105 -139 143 -272 238 -86 63 -160 111 -164 108 -12 -13
86 -100 197 -174 91 -61 125 -90 163 -142 26 -36 43 -67 38 -68 -19 -7 -90 59
-90 82 0 12 -10 31 -22 42 -31 28 -252 174 -262 174 -5 0 -43 24 -85 53 -130
91 -479 277 -518 277 -24 0 -10 -35 15 -38 13 -2 39 -14 58 -27 19 -13 48 -30
64 -37 31 -14 43 -35 13 -23 -10 4 -47 18 -83 30 -36 13 -94 40 -130 59 -36
19 -82 44 -102 56 -20 11 -40 24 -43 30 -4 6 -25 19 -48 29 -196 87 -280 121
-304 121 -15 0 -53 7 -83 15 -174 45 -352 96 -400 114 -62 24 -168 53 -418
117 -95 24 -176 45 -180 48 -14 8 -214 47 -225 43 -17 -5 32 -35 68 -40 71
-12 181 -40 190 -49 13 -13 -64 -2 -164 23 -41 10 -84 19 -97 19 -13 0 -25 4
-28 8 -7 11 -106 28 -271 47 -162 18 -170 18 -185 0z m785 -105 c3 -5 1 -10
-4 -10 -6 0 -11 5 -11 10 0 6 2 10 4 10 3 0 8 -4 11 -10z m395 -90 c8 -5 12
-11 9 -14 -3 -3 -14 1 -25 9 -21 16 -8 20 16 5z m-496 -136 c9 -3 16 -10 16
-14 0 -10 -38 -1 -46 11 -6 10 7 12 30 3z m281 -49 c106 -25 161 -43 153 -50
-5 -6 -317 71 -326 80 -9 10 48 0 173 -30z m576 -71 c71 -28 93 -44 64 -44
-22 0 -121 46 -130 60 -9 14 -7 13 66 -16z m-461 -4 c0 -5 -4 -10 -10 -10 -5
0 -10 5 -10 10 0 6 5 10 10 10 6 0 10 -4 10 -10z m681 -66 c164 -54 136 -60
-38 -8 -45 13 -85 29 -88 34 -10 16 12 12 126 -26z m-1241 6 c0 -5 -7 -7 -15
-4 -8 4 -15 8 -15 10 0 2 7 4 15 4 8 0 15 -4 15 -10z m-16 -41 c63 -19 102
-37 94 -44 -8 -8 -172 42 -176 53 -5 16 -1 16 82 -9z m1535 -63 c115 -44 144
-60 189 -100 28 -25 71 -44 177 -79 312 -101 494 -178 665 -281 41 -25 102
-59 135 -77 32 -17 77 -42 98 -56 27 -17 47 -22 66 -18 22 5 31 0 49 -24 27
-37 29 -56 5 -46 -10 4 -45 18 -78 30 -82 31 -328 136 -340 145 -5 4 -28 13
-50 20 -22 7 -60 23 -85 36 -25 13 -88 37 -140 53 -231 72 -427 143 -445 162
-23 23 -235 162 -313 204 -29 15 -52 32 -52 37 0 5 5 6 12 2 8 -5 9 -2 5 9 -9
24 2 22 102 -17z m-589 -16 c0 -5 -2 -10 -4 -10 -3 0 -8 5 -11 10 -3 6 -1 10
4 10 6 0 11 -4 11 -10z m75 -20 c8 -13 -5 -13 -25 0 -13 8 -13 10 2 10 9 0 20
-4 23 -10z m-811 -21 c39 -12 65 -24 58 -26 -17 -6 -142 29 -142 39 0 11 5 10
84 -13z m1091 -200 c55 -6 101 -12 103 -13 1 -2 0 -10 -4 -19 -9 -24 -55 -30
-97 -12 -45 19 -47 19 -47 0 0 -12 -14 -8 -60 17 -66 37 -77 53 -27 44 17 -3
77 -11 132 -17z m241 -23 c10 -8 16 -18 12 -22 -7 -7 -65 12 -82 28 -17 14 49
9 70 -6z m349 -45 c180 -55 164 -46 325 -172 80 -63 200 -151 265 -196 79 -54
157 -119 229 -192 61 -61 108 -112 105 -115 -7 -8 -111 61 -154 102 -22 21
-157 116 -300 212 -143 95 -273 184 -290 197 -92 74 -185 129 -285 169 -25 10
-49 21 -54 26 -21 17 34 7 159 -31z m-210 -5 c40 -17 48 -42 11 -32 -13 3 -43
14 -67 25 l-44 20 33 0 c18 1 48 -6 67 -13z m-725 -20 c35 -13 66 -28 68 -34
2 -7 -29 2 -69 18 -111 46 -110 57 1 16z m116 -63 c-7 -7 -26 7 -26 19 0 6 6
6 15 -2 9 -7 13 -15 11 -17z m523 16 c47 -10 81 -33 68 -46 -7 -7 -125 36
-133 48 -7 12 4 11 65 -2z m302 -55 c61 -30 109 -58 106 -60 -7 -7 -212 90
-221 105 -11 18 -2 14 115 -45z m391 -8 c67 -19 119 -58 102 -76 -9 -9 -22 -5
-53 14 -22 14 -45 26 -51 26 -15 0 -80 43 -80 54 0 4 6 6 13 3 6 -2 38 -12 69
-21z m-1179 -13 c15 -7 27 -16 27 -18 0 -7 -83 26 -95 38 -13 12 29 0 68 -20z
m632 -3 c7 -12 -2 -12 -30 0 -19 8 -19 9 2 9 12 1 25 -3 28 -9z m406 -138
c-13 -4 -67 24 -92 49 -40 40 -17 38 42 -3 33 -23 56 -44 50 -46z m-246 57
c12 -19 -5 -23 -22 -6 -16 16 -16 17 -1 17 9 0 20 -5 23 -11z m620 -71 c14 -6
25 -15 25 -20 0 -13 -13 -9 -40 12 -28 22 -23 25 15 8z m-923 -108 l33 -30
-30 10 c-34 13 -55 28 -55 41 0 17 20 9 52 -21z m1080 -35 c4 -21 3 -23 -13
-14 -11 5 -16 16 -13 24 9 23 21 18 26 -10z m-888 -40 c23 -34 20 -38 -14 -20
-18 9 -30 23 -30 35 0 25 23 17 44 -15z m521 15 c4 -6 51 -33 105 -60 54 -27
130 -70 168 -95 79 -51 119 -69 144 -66 10 1 47 -16 84 -38 37 -23 76 -41 86
-41 17 0 36 -25 27 -35 -12 -11 -164 52 -256 108 -118 71 -233 130 -333 172
-74 30 -85 39 -76 54 9 14 43 14 51 1z m520 -139 c-7 -6 -85 70 -85 83 0 6 20
-10 45 -34 24 -24 42 -46 40 -49z m35 49 c0 -5 -2 -10 -4 -10 -3 0 -8 5 -11
10 -3 6 -1 10 4 10 6 0 11 -4 11 -10z m60 -52 c0 -6 -7 -5 -15 2 -8 7 -15 17
-15 22 0 6 7 5 15 -2 8 -7 15 -17 15 -22z m-2 -70 c37 -26 43 -33 28 -36 -11
-3 -32 10 -55 32 -44 45 -34 46 27 4z m122 -12 c22 -27 -5 -17 -31 10 -21 24
-22 26 -3 16 11 -6 26 -18 34 -26z"/>
<path d="M3400 6033 c-24 -3 -51 -10 -59 -16 -7 -7 -50 -16 -95 -22 -94 -12
-100 -29 -11 -31 94 -2 369 -5 383 -5 29 2 -1 20 -43 27 -89 13 -44 25 93 24
182 -1 167 -3 152 15 -10 12 -43 15 -194 13 -99 -1 -201 -3 -226 -5z"/>
<path d="M3852 6009 c-12 -12 -22 -31 -22 -40 0 -19 -1 -19 180 -49 174 -29
220 -40 220 -51 0 -6 -5 -7 -10 -4 -6 4 -77 17 -158 31 -149 24 -332 32 -332
14 0 -12 24 -17 115 -24 39 -4 129 -17 200 -31 156 -30 415 -75 433 -75 21 0
13 40 -13 65 -28 29 -13 33 40 11 58 -25 42 6 -17 33 -87 40 -170 62 -208 56
-25 -4 -73 6 -168 35 -74 22 -158 43 -186 46 -47 6 -56 4 -74 -17z m83 -18 c3
-5 1 -12 -5 -16 -5 -3 -10 1 -10 9 0 18 6 21 15 7z m45 -21 c0 -5 -4 -10 -9
-10 -6 0 -13 5 -16 10 -3 6 1 10 9 10 9 0 16 -4 16 -10z m430 -86 c0 -2 -7 -4
-15 -4 -8 0 -15 4 -15 10 0 5 7 7 15 4 8 -4 15 -8 15 -10z"/>
<path d="M5223 5986 c4 -11 45 -23 162 -47 33 -7 69 -20 80 -29 11 -10 90 -34
175 -55 155 -39 238 -68 466 -164 116 -48 185 -63 199 -42 5 10 -78 53 -204
106 -173 72 -888 261 -878 231z"/>
<path d="M2271 5918 c-18 -59 -23 -132 -11 -163 11 -30 12 -30 28 -10 14 17
16 38 14 113 -4 96 -13 115 -31 60z"/>
<path d="M2990 5909 c-30 -5 -66 -12 -80 -15 l-25 -7 30 -8 c19 -6 66 -3 129
6 55 8 101 15 103 15 2 0 3 5 3 10 0 12 -82 11 -160 -1z"/>
<path d="M2649 5852 c-118 -59 -199 -114 -199 -135 0 -6 -19 -28 -42 -48 -31
-27 -40 -40 -32 -48 7 -8 25 -1 65 28 69 49 153 91 254 127 85 31 78 43 -14
26 -28 -5 -51 -7 -51 -3 0 7 40 30 123 73 31 16 57 31 57 34 0 16 -62 -4 -161
-54z"/>
<path d="M3445 5905 c-5 -2 -22 -6 -37 -9 -16 -4 -28 -12 -28 -20 0 -14 -61
-26 -136 -26 -23 0 -55 -5 -71 -11 -15 -5 -62 -16 -104 -24 -43 -7 -86 -18
-96 -23 -38 -22 14 -22 167 -1 261 35 369 42 471 32 52 -6 98 -7 103 -2 16 14
-5 29 -43 29 -32 0 -37 3 -37 22 1 15 -7 24 -24 29 -25 7 -147 10 -165 4z m35
-35 c0 -5 -12 -10 -27 -9 -25 0 -26 1 -8 9 27 12 35 12 35 0z m70 0 c0 -5 -7
-10 -15 -10 -8 0 -15 5 -15 10 0 6 7 10 15 10 8 0 15 -4 15 -10z m60 -10 c0
-5 -2 -10 -4 -10 -3 0 -8 5 -11 10 -3 6 -1 10 4 10 6 0 11 -4 11 -10z"/>
<path d="M1466 5794 c-55 -67 -53 -64 -135 -274 -56 -147 -85 -236 -110 -342
-11 -48 -15 -125 -6 -116 3 3 25 75 49 159 45 157 186 507 232 575 42 62 20
60 -30 -2z"/>
<path d="M1962 5788 c-10 -18 -29 -60 -42 -93 -12 -33 -31 -80 -41 -105 -23
-54 -69 -232 -69 -269 0 -14 -9 -46 -20 -70 -11 -23 -25 -72 -30 -107 -6 -36
-32 -158 -59 -272 -71 -302 -92 -426 -66 -400 7 7 33 126 46 207 5 35 12 67
14 72 9 13 65 207 65 222 0 8 14 59 31 113 17 55 41 161 55 236 25 145 79 325
125 422 16 33 29 63 29 68 0 18 -20 6 -38 -24z"/>
<path d="M3418 5742 c-79 -5 -54 -19 45 -25 111 -7 314 -36 342 -48 13 -6 1
-8 -35 -4 -104 10 -325 25 -363 25 -59 0 -41 -24 24 -32 30 -3 122 -12 204
-18 83 -6 169 -16 193 -21 33 -7 49 -6 72 6 16 8 46 15 67 15 64 0 24 20 -103
51 -160 39 -331 59 -446 51z"/>
<path d="M5566 5741 c-4 -5 13 -16 36 -25 24 -8 103 -38 177 -66 133 -50 179
-60 165 -39 -11 18 -124 68 -181 79 -29 6 -55 16 -58 21 -4 5 -18 9 -33 9 -15
0 -36 7 -46 15 -22 17 -52 20 -60 6z"/>
<path d="M2310 5709 c-93 -53 -204 -175 -229 -252 -7 -21 -32 -73 -55 -115
-44 -80 -63 -132 -47 -132 13 0 23 16 91 145 35 66 73 136 85 155 34 54 137
154 189 185 45 26 59 45 34 45 -7 0 -38 -14 -68 -31z"/>
<path d="M2720 5711 c-35 -4 -50 -9 -42 -14 16 -11 200 2 208 14 6 10 -76 9
-166 0z"/>
<path d="M2083 5665 c-14 -26 -37 -144 -30 -151 14 -14 26 11 37 75 14 75 10
109 -7 76z"/>
<path d="M3130 5661 c-44 -6 -44 -6 -21 -20 17 -9 48 -12 103 -9 76 5 98 11
84 25 -9 10 -112 12 -166 4z"/>
<path d="M2515 5642 c-27 -9 -75 -34 -104 -54 -50 -33 -57 -35 -75 -22 -31 21
-35 18 -33 -30 2 -34 -3 -50 -21 -68 -21 -23 -29 -48 -16 -48 4 0 22 13 40 30
19 16 47 36 63 44 26 14 30 14 45 -3 16 -17 10 -25 -103 -140 -66 -66 -127
-121 -135 -121 -29 0 -85 -110 -147 -286 -41 -118 -67 -247 -84 -420 -7 -65 8
-98 18 -41 3 17 15 88 27 157 12 69 32 163 46 210 34 123 102 293 130 326 l24
29 -6 -30 -7 -30 39 37 c34 33 44 37 74 32 23 -3 42 0 55 9 18 14 17 15 -24
24 l-44 8 57 67 c58 68 123 124 133 115 10 -10 -49 -77 -73 -83 -13 -3 -24
-12 -24 -19 0 -9 27 -15 85 -20 47 -4 85 -9 85 -12 0 -2 -26 -30 -58 -61 -56
-56 -152 -189 -152 -211 0 -25 21 -7 79 69 64 83 101 110 146 110 33 0 68 18
60 31 -4 5 -18 9 -32 9 -26 0 -26 0 -7 21 26 29 192 138 288 190 43 23 104 48
135 55 70 17 71 17 71 -1 0 -12 15 -15 74 -15 41 0 78 5 81 10 4 6 -16 10 -52
10 -81 0 -96 14 -31 28 91 19 139 25 268 31 114 6 122 8 95 20 -73 31 -366 -4
-589 -71 -48 -15 -85 -19 -125 -16 -60 5 -81 2 -81 -13 0 -5 23 -9 50 -9 28 0
50 -4 50 -9 0 -12 -89 -49 -138 -57 -44 -7 -78 -33 -54 -41 18 -7 15 -19 -12
-36 -18 -12 -31 -14 -52 -7 -16 5 -42 12 -58 15 -27 6 -28 8 -13 22 14 14 20
13 61 -11 51 -30 57 -22 25 31 -27 43 -27 43 101 116 102 59 198 95 325 124
78 17 79 18 35 21 -24 2 -74 -2 -110 -9 -73 -14 -320 -12 -334 2 -13 11 -12
12 -71 -9z m158 -25 c48 2 87 -1 87 -5 0 -4 -57 -40 -127 -80 l-127 -73 -22
23 c-12 13 -24 38 -28 55 -5 31 -3 34 47 63 32 19 58 27 67 22 8 -4 54 -6 103
-5z"/>
<path d="M1474 5535 c-46 -99 -130 -320 -159 -416 -32 -105 -57 -258 -49 -298
l7 -33 14 23 c13 22 14 21 8 -21 -14 -94 -22 -237 -16 -283 11 -92 26 -48 37
112 6 87 19 193 28 235 10 42 16 82 13 89 -4 11 -27 -32 -42 -77 -3 -10 -8
-16 -11 -13 -9 8 47 299 63 331 19 37 73 192 73 209 0 7 17 49 39 93 48 99 56
124 41 124 -6 0 -27 -34 -46 -75z"/>
<path d="M3594 5535 c11 -8 25 -15 32 -15 7 0 15 -4 18 -8 3 -5 -20 -6 -51 -4
-44 4 -55 2 -51 -9 3 -8 27 -17 59 -22 99 -15 312 -58 477 -98 167 -40 218
-47 207 -29 -13 20 -102 58 -220 93 -198 58 -401 107 -447 107 -40 -1 -42 -2
-24 -15z m91 -35 c3 -5 1 -10 -4 -10 -6 0 -11 5 -11 10 0 6 2 10 4 10 3 0 8
-4 11 -10z"/>
<path d="M2185 5418 c-59 -68 -167 -247 -217 -359 -52 -117 -82 -239 -75 -301
4 -32 0 -74 -13 -125 -22 -84 -33 -193 -51 -508 -6 -115 -15 -215 -20 -221
-17 -21 71 -289 136 -412 38 -73 105 -149 105 -120 0 9 -10 29 -23 45 -29 34
-77 131 -77 153 0 9 -4 20 -10 26 -13 13 -57 139 -81 228 -15 59 -16 85 -9
185 5 64 16 211 25 326 9 138 21 235 35 282 13 47 18 87 14 115 -10 78 28 229
91 354 52 105 157 272 211 337 13 16 24 33 24 38 0 20 -21 6 -65 -43z"/>
<path d="M3315 5464 c-16 -2 -49 -7 -73 -10 -26 -3 -55 -16 -75 -33 -18 -15
-68 -40 -111 -55 -149 -52 -246 -109 -246 -143 0 -20 20 -16 57 13 39 30 114
64 233 106 47 17 92 39 100 48 27 32 60 41 165 47 58 3 105 10 105 15 0 4 -19
8 -42 8 -24 0 -52 2 -63 4 -11 2 -33 2 -50 0z"/>
<path d="M1756 5428 c-24 -33 -133 -372 -156 -480 -30 -145 -44 -268 -32 -280
13 -13 26 32 47 172 18 115 43 217 80 325 49 148 87 276 82 281 -3 3 -12 -5
-21 -18z"/>
<path d="M3065 5440 c-101 -20 -337 -139 -411 -207 -35 -32 -31 -47 10 -39 57
11 54 -17 -9 -86 -50 -53 -70 -98 -46 -98 6 0 33 27 62 60 61 68 75 76 99 55
9 -8 26 -15 38 -15 28 0 28 -12 -2 -47 -35 -42 -87 -151 -76 -158 16 -10 29 3
55 54 13 27 36 63 51 80 15 18 28 43 30 56 5 46 24 57 53 31 17 -14 25 -17
276 -83 146 -39 360 -115 380 -136 7 -7 4 -8 -10 -3 -11 4 -96 30 -190 58 -93
27 -179 53 -190 57 -49 19 -295 75 -301 68 -9 -9 15 -37 32 -37 20 0 17 -24
-6 -45 -26 -24 -76 -111 -86 -150 -6 -26 -5 -28 8 -17 16 13 100 153 111 185
4 9 15 17 25 17 33 0 112 -32 112 -45 0 -7 6 -18 14 -24 14 -12 267 -101 286
-101 29 0 2 23 -57 50 -36 17 -64 32 -62 34 5 5 115 -24 288 -76 82 -24 108
-28 122 -20 15 10 23 6 48 -19 53 -53 140 -68 454 -79 150 -5 310 -14 357 -20
75 -9 217 -21 418 -37 57 -4 80 5 52 22 -14 9 -164 33 -250 40 -41 3 -145 15
-230 26 -107 14 -181 18 -240 14 -82 -5 -88 -4 -170 31 -161 68 -285 115 -425
158 -77 24 -187 59 -245 77 -162 50 -324 88 -334 78 -15 -14 -4 -19 131 -55
70 -19 193 -55 273 -80 80 -25 174 -55 210 -66 36 -11 83 -28 105 -39 22 -10
78 -33 125 -51 99 -38 86 -45 -48 -29 -70 8 -105 19 -177 55 -121 59 -264 115
-415 161 -69 20 -134 41 -145 46 -34 14 -174 49 -196 49 -36 0 -11 17 48 33
33 9 123 19 208 23 151 7 221 22 212 46 -2 7 -13 12 -23 10 -10 -1 -84 -7
-164 -12 -178 -12 -274 -26 -347 -51 -70 -24 -79 -24 -142 2 -43 18 -49 24
-39 36 38 46 237 148 348 178 78 21 86 25 69 36 -16 10 -19 10 -74 -1z m164
-472 c37 -13 19 -20 -20 -7 -41 14 -67 35 -29 24 14 -4 36 -12 49 -17z"/>
<path d="M4260 5415 c7 -8 27 -15 44 -15 50 0 152 -27 276 -71 63 -23 121 -43
129 -45 8 -3 11 -7 8 -10 -3 -3 -55 10 -115 30 -134 43 -197 55 -190 35 2 -7
47 -25 99 -40 115 -33 359 -120 359 -128 0 -3 -4 -12 -9 -19 -6 -10 -26 -9
-101 8 -100 21 -140 25 -140 12 0 -4 93 -30 208 -56 114 -27 212 -52 217 -57
6 -4 39 -19 74 -33 50 -20 82 -26 140 -26 l75 0 -47 45 c-120 114 -814 385
-987 385 -46 0 -51 -2 -40 -15z m520 -155 c0 -5 -5 -10 -11 -10 -5 0 -7 5 -4
10 3 6 8 10 11 10 2 0 4 -4 4 -10z m310 -136 c20 -20 1 -17 -40 7 l-35 20 30
-6 c17 -4 37 -13 45 -21z m86 -40 c42 -20 57 -39 23 -29 -33 10 -87 45 -71 45
8 0 29 -7 48 -16z"/>
<path d="M6852 5408 c6 -16 170 -108 181 -101 14 9 -32 50 -93 82 -61 32 -95
40 -88 19z"/>
<path d="M3600 5373 c0 -10 462 -64 549 -63 102 0 38 17 -149 40 -221 26 -400
37 -400 23z"/>
<path d="M3380 5333 c-46 -8 -46 -23 1 -23 76 0 179 12 179 21 0 9 -134 10
-180 2z"/>
<path d="M3123 5299 c-34 -10 -49 -24 -34 -33 10 -6 67 20 76 35 7 11 1 10
-42 -2z"/>
<path d="M1913 5257 c-32 -48 -68 -124 -95 -202 -32 -89 -64 -283 -50 -297 13
-13 17 1 41 147 11 66 29 138 40 160 23 45 101 216 101 221 0 13 -18 -1 -37
-29z"/>
<path d="M3598 5259 c-22 -13 -23 -25 -2 -33 18 -7 64 18 64 34 0 13 -40 12
-62 -1z"/>
<path d="M3700 5261 c0 -17 272 -33 280 -16 3 5 -8 13 -25 16 -47 10 -255 10
-255 0z"/>
<path d="M4042 5237 c24 -19 157 -42 170 -29 13 13 -41 29 -127 37 -52 6 -58
5 -43 -8z"/>
<path d="M4240 5231 c0 -5 6 -13 13 -18 18 -15 202 -108 282 -143 98 -44 242
-123 229 -127 -6 -2 -57 17 -115 43 -291 130 -433 184 -446 171 -12 -13 12
-27 83 -52 38 -13 179 -73 314 -133 233 -104 395 -171 450 -187 l25 -7 -24 25
c-25 27 -21 50 7 40 9 -4 36 -19 60 -35 23 -16 50 -28 60 -26 50 10 -323 235
-610 367 -71 33 -88 37 -88 21 0 -5 32 -26 71 -46 39 -19 69 -37 66 -40 -6 -7
-80 24 -230 95 -130 62 -147 68 -147 52z m687 -317 c-7 -7 -37 7 -37 17 0 6 9
5 21 -1 11 -7 19 -14 16 -16z m-102 6 c3 -5 2 -10 -4 -10 -5 0 -13 5 -16 10
-3 6 -2 10 4 10 5 0 13 -4 16 -10z m185 -52 c0 -14 -16 -9 -36 13 -19 21 -19
21 9 8 15 -7 27 -16 27 -21z"/>
<path d="M2556 5140 c-34 -38 -47 -70 -27 -70 11 0 91 89 91 101 0 21 -30 6
-64 -31z"/>
<path d="M3270 5170 c0 -5 10 -12 23 -15 134 -29 224 -52 342 -86 258 -74 388
-119 633 -218 31 -12 52 -17 50 -10 -5 14 -208 108 -315 145 -43 15 -87 33
-98 41 -11 7 -28 13 -38 13 -20 0 -297 77 -416 116 -74 24 -181 33 -181 14z"/>
<path d="M3756 5160 c5 -5 59 -19 119 -30 225 -43 402 -94 550 -157 129 -56
205 -83 205 -73 0 18 -156 84 -380 161 -192 66 -529 134 -494 99z"/>
<path d="M3660 5132 c0 -5 33 -18 73 -27 39 -10 90 -23 112 -30 22 -7 110 -34
195 -60 85 -26 189 -59 230 -75 84 -31 190 -65 233 -75 21 -4 28 -2 25 6 -2 7
-74 36 -159 64 -85 29 -198 68 -250 87 -169 64 -459 133 -459 110z"/>
<path d="M2250 5110 c-6 -11 -31 -73 -57 -137 -25 -65 -52 -127 -59 -138 -8
-11 -14 -35 -14 -54 0 -18 -16 -98 -35 -177 -37 -150 -55 -294 -38 -294 5 0
17 44 27 98 27 153 102 431 152 560 25 64 48 127 51 140 7 27 -12 29 -27 2z"/>
<path d="M2149 5053 c-37 -41 -76 -150 -113 -312 -32 -135 -34 -147 -46 -259
-6 -52 -17 -106 -24 -121 -52 -100 -44 -516 12 -685 33 -98 59 -47 28 54 -20
68 -39 273 -33 380 2 52 11 136 20 185 9 50 24 144 32 210 21 152 86 417 120
489 28 60 30 90 4 59z"/>
<path d="M7420 5043 c0 -5 20 -28 44 -53 25 -25 60 -61 79 -80 18 -19 61 -57
95 -85 60 -49 60 -50 34 -55 -53 -10 -27 -34 122 -115 155 -84 226 -135 226
-162 0 -12 3 -13 14 -4 10 9 30 -1 91 -44 42 -31 112 -78 154 -105 43 -28 86
-59 96 -70 10 -11 22 -20 27 -20 20 0 99 -63 215 -173 67 -63 138 -122 157
-131 19 -9 49 -35 67 -59 25 -31 27 -36 8 -20 -13 12 -64 44 -113 73 -49 28
-127 79 -173 113 -46 34 -113 82 -148 107 -35 25 -98 74 -141 110 -43 36 -97
76 -121 90 -40 24 -89 57 -203 140 -66 47 -118 76 -125 68 -14 -14 16 -43 123
-119 253 -178 290 -210 481 -408 280 -292 351 -371 461 -516 54 -71 128 -162
164 -202 36 -39 66 -74 66 -77 0 -3 -14 -6 -31 -6 -46 0 -33 -18 60 -81 95
-64 237 -114 356 -125 61 -6 84 -15 177 -66 101 -56 132 -78 110 -78 -6 0 -36
14 -67 30 -52 27 -59 29 -70 14 -10 -15 -22 -11 -117 35 -99 48 -150 62 -162
42 -3 -5 -34 0 -68 10 -105 30 -222 70 -233 78 -5 5 -17 10 -25 12 -35 9 -240
122 -234 130 3 5 -1 9 -10 9 -8 0 -47 16 -87 35 -41 19 -79 35 -85 35 -15 0
-39 29 -30 37 3 4 23 -3 44 -15 84 -47 290 -90 306 -63 10 15 -16 28 -94 46
-146 35 -294 103 -417 194 -83 61 -177 121 -189 121 -6 0 -26 12 -45 26 -19
14 -63 41 -99 59 -135 69 -319 208 -593 450 -82 71 -155 134 -164 138 -24 14
-27 0 -5 -27 50 -64 458 -415 591 -509 10 -6 28 -31 39 -53 12 -23 61 -89 110
-145 48 -57 123 -153 166 -214 75 -105 76 -108 31 -65 -26 25 -104 113 -174
195 -132 157 -324 355 -345 355 -6 0 -34 23 -61 51 -28 28 -76 71 -108 95 -32
24 -87 76 -124 114 -36 39 -74 70 -83 70 -10 0 -63 39 -117 88 -160 142 -220
192 -232 192 -19 0 -12 -26 14 -50 38 -35 22 -36 -26 0 -30 22 -45 27 -48 18
-2 -7 38 -51 90 -98 256 -231 739 -726 739 -757 0 -7 4 -13 9 -13 14 0 251
-262 245 -271 -4 -8 -75 20 -164 64 -79 39 -139 92 -420 369 -324 320 -448
439 -512 492 -25 22 -61 59 -79 83 -32 42 -96 89 -107 79 -11 -12 56 -81 230
-242 101 -92 314 -299 473 -460 160 -161 310 -305 335 -321 25 -16 92 -52 150
-81 96 -47 107 -55 129 -98 24 -45 100 -119 173 -171 31 -21 41 -24 51 -14 9
10 3 20 -30 50 -24 20 -43 40 -43 44 0 4 26 -6 58 -22 73 -37 132 -53 147 -41
8 7 19 0 34 -20 28 -38 45 -39 36 -2 -7 28 -46 95 -157 268 -70 108 -85 142
-45 107 12 -11 63 -29 117 -42 200 -48 217 -55 410 -162 96 -54 352 -162 458
-194 24 -8 74 -17 110 -21 42 -4 88 -17 123 -35 31 -15 96 -44 144 -64 48 -20
198 -88 334 -152 135 -63 279 -128 319 -144 39 -16 109 -47 154 -70 45 -23
120 -56 167 -74 47 -18 228 -95 401 -170 173 -76 416 -179 540 -230 124 -51
270 -112 325 -137 94 -43 321 -130 410 -158 22 -7 110 -39 195 -72 105 -41
174 -62 215 -65 57 -5 59 -4 38 11 -12 9 -62 35 -110 57 -48 23 -106 49 -129
60 -22 10 -84 34 -137 54 -78 28 -279 128 -332 164 -5 4 -35 15 -65 25 -85 28
-243 93 -370 152 -110 51 -169 76 -430 184 -128 53 -314 143 -405 195 -33 19
-89 50 -125 68 -135 70 -446 241 -461 254 -8 7 -24 13 -33 13 -10 0 -30 8 -44
19 -15 10 -103 57 -197 105 -142 73 -173 93 -190 122 -11 19 -33 42 -50 50
-34 17 -85 63 -85 77 0 5 18 6 40 2 36 -6 40 -5 40 15 0 38 -20 60 -108 117
-111 71 -202 143 -202 158 0 19 -29 40 -120 85 -47 23 -96 49 -110 57 -14 8
-71 37 -127 64 -100 49 -129 70 -116 82 3 4 21 -4 39 -18 62 -47 76 -20 19 35
-19 19 -58 69 -86 111 -41 63 -80 102 -200 204 -81 70 -166 147 -188 173 -22
26 -70 71 -108 100 -224 175 -326 252 -388 292 -39 24 -107 75 -153 112 -46
37 -89 68 -96 68 -7 0 -21 9 -32 21 -10 11 -61 46 -114 76 -52 31 -109 67
-126 80 -30 22 -64 31 -64 16z m453 -347 c40 -29 33 -39 -13 -16 -22 11 -40
27 -40 36 0 16 6 14 53 -20z m72 -54 c-3 -3 -11 0 -18 7 -9 10 -8 11 6 5 10
-3 15 -9 12 -12z m-710 -393 c11 -17 -1 -21 -15 -4 -8 9 -8 15 -2 15 6 0 14
-5 17 -11z m135 -118 c119 -98 321 -311 294 -311 -8 0 -368 350 -373 363 -5
14 16 0 79 -52z m1176 -118 c229 -155 311 -213 323 -227 14 -16 12 -16 -30 0
-24 10 -54 24 -66 32 -21 13 -23 13 -23 -2 0 -9 23 -31 50 -48 48 -30 64 -52
22 -29 -12 6 -28 11 -36 11 -15 0 -219 195 -287 274 -36 41 -28 39 47 -11z
m-698 -308 c120 -132 147 -165 133 -165 -10 0 -124 124 -221 240 -76 91 -18
41 88 -75z m-128 55 c0 -5 -2 -10 -4 -10 -3 0 -8 5 -11 10 -3 6 -1 10 4 10 6
0 11 -4 11 -10z m41 -47 c13 -16 12 -17 -3 -4 -10 7 -18 15 -18 17 0 8 8 3 21
-13z m1139 -3 c0 -5 -7 -7 -15 -4 -8 4 -15 8 -15 10 0 2 7 4 15 4 8 0 15 -4
15 -10z m-811 -22 l36 -23 -28 -3 c-19 -2 -33 3 -43 15 -29 38 -16 42 35 11z
m833 -66 c24 -20 77 -62 117 -92 71 -54 83 -81 17 -41 -18 12 -42 21 -53 21
-12 0 -26 7 -33 15 -7 8 -18 15 -26 15 -10 0 -104 111 -104 124 0 12 43 -10
82 -42z m-948 -141 c-6 -6 -144 130 -144 143 0 6 34 -23 75 -64 41 -41 72 -76
69 -79z m299 100 c37 -24 36 -24 -57 -7 -83 14 -99 33 -26 30 31 -2 64 -11 83
-23z m101 -66 c11 -8 17 -17 14 -20 -3 -3 -16 3 -29 14 -27 23 -14 28 15 6z
m819 -27 c74 -42 104 -70 85 -77 -9 -3 -85 46 -143 94 -44 37 -23 30 58 -17z
m-1143 -18 c0 -5 -2 -10 -4 -10 -3 0 -8 5 -11 10 -3 6 -1 10 4 10 6 0 11 -4
11 -10z m292 -20 c16 0 28 -4 28 -10 0 -5 -15 -10 -32 -10 -18 0 -40 -4 -48
-10 -18 -11 -40 5 -40 31 0 15 4 16 32 8 18 -5 45 -9 60 -9z m663 10 c3 -5 2
-10 -4 -10 -5 0 -13 5 -16 10 -3 6 -2 10 4 10 5 0 13 -4 16 -10z m-495 -36
c22 -15 39 -29 37 -31 -7 -6 -107 18 -107 26 0 7 21 31 27 31 2 0 21 -12 43
-26z m943 -78 c36 -22 15 -24 -30 -3 -61 29 -103 57 -103 69 0 8 56 -20 133
-66z m-1383 42 c29 -31 25 -46 -5 -18 -23 21 -32 40 -20 40 2 0 13 -10 25 -22z
m1030 -18 c0 -11 -2 -20 -3 -20 -2 0 -12 9 -22 20 -18 19 -17 20 3 20 15 0 22
-6 22 -20z m415 -60 c3 -5 1 -10 -4 -10 -6 0 -11 5 -11 10 0 6 2 10 4 10 3 0
8 -4 11 -10z m-191 -46 c118 -23 286 -114 286 -154 0 -26 36 -48 345 -210 284
-150 338 -180 331 -187 -5 -6 -563 271 -585 291 -41 36 -129 69 -204 78 -94
10 -212 47 -293 92 -57 32 -83 66 -50 66 10 0 16 9 16 24 0 22 3 24 43 19 23
-3 73 -11 111 -19z m-1199 -14 c3 -5 1 -10 -4 -10 -6 0 -11 5 -11 10 0 6 2 10
4 10 3 0 8 -4 11 -10z m209 -40 c15 0 96 -111 96 -132 0 -12 -22 -9 -40 5 -19
15 -130 153 -130 162 0 4 13 -3 29 -14 16 -12 36 -21 45 -21z m-104 -102 c0
-6 -6 -5 -15 2 -8 7 -15 14 -15 16 0 2 7 1 15 -2 8 -4 15 -11 15 -16z m1776
-313 c18 -14 17 -15 -11 -9 -37 8 -57 24 -29 24 11 0 29 -7 40 -15z m49 -25
c3 -5 1 -10 -4 -10 -6 0 -11 5 -11 10 0 6 2 10 4 10 3 0 8 -4 11 -10z m61 -31
c9 -15 -23 -10 -35 5 -10 12 -8 13 9 9 11 -3 23 -9 26 -14z m230 -44 c10 -8
14 -15 7 -15 -19 0 -43 11 -43 21 0 13 14 11 36 -6z m-101 -12 c19 -9 35 -20
35 -25 0 -5 -18 1 -40 12 -22 11 -40 23 -40 25 0 8 7 6 45 -12z m125 -58 c17
-9 30 -17 30 -20 0 -7 -60 16 -66 26 -8 13 3 11 36 -6z"/>
<path d="M2364 4999 c-26 -34 -98 -238 -138 -394 -25 -93 -45 -159 -45 -145
-1 14 -5 32 -11 40 -7 11 -11 9 -19 -13 -13 -34 -14 -69 -1 -122 6 -28 4 -86
-7 -190 -13 -121 -13 -158 -4 -194 7 -23 15 -40 19 -36 4 3 10 77 14 163 5
123 13 185 37 287 17 72 43 182 57 245 14 63 34 131 45 151 10 20 19 42 19 49
0 6 12 41 26 76 26 65 30 112 8 83z"/>
<path d="M2532 4967 c-40 -85 -75 -247 -54 -247 17 0 25 19 43 100 16 69 26
106 44 168 12 39 -12 24 -33 -21z"/>
<path d="M3009 4913 c-11 -27 -23 -61 -26 -78 l-5 -30 21 30 c25 35 51 91 51
111 0 30 -22 12 -41 -33z"/>
<path d="M5040 4945 c0 -9 8 -18 18 -21 9 -3 47 -20 83 -37 51 -25 67 -37 65
-52 -1 -22 65 -58 249 -136 55 -24 107 -49 116 -56 8 -7 20 -13 25 -13 5 0 41
-15 79 -34 156 -75 293 -114 309 -88 14 22 -185 155 -437 291 -103 56 -199 94
-207 81 -4 -6 -22 -2 -48 10 -49 24 -53 24 -46 5 4 -8 4 -15 2 -15 -3 0 -46
18 -97 40 -103 45 -111 46 -111 25z m255 -125 c17 -11 26 -20 22 -20 -11 0
-67 29 -67 35 0 10 16 4 45 -15z m325 -130 c0 -5 -2 -10 -4 -10 -3 0 -8 5 -11
10 -3 6 -1 10 4 10 6 0 11 -4 11 -10z m71 -33 c19 -12 51 -31 72 -42 62 -32
64 -47 3 -20 -53 23 -136 73 -136 81 0 11 31 1 61 -19z"/>
<path d="M2427 4903 c-34 -53 -118 -426 -168 -751 -20 -129 -35 -201 -45 -208
-10 -8 -14 -32 -14 -82 0 -39 -4 -74 -10 -77 -37 -23 52 -295 121 -367 26 -28
41 -55 48 -88 13 -60 67 -150 175 -291 44 -59 86 -114 91 -122 11 -17 55 -33
55 -20 0 5 -23 38 -50 73 -47 61 -147 206 -202 295 -24 37 -64 192 -54 203 3
2 28 -42 58 -99 64 -126 79 -108 23 28 -20 48 -50 124 -66 168 l-31 80 5 284
c5 279 -2 342 -22 196 -19 -136 -23 -292 -12 -465 7 -96 14 -186 17 -200 l5
-25 -20 23 c-11 12 -25 48 -31 80 -6 31 -18 87 -27 124 -39 166 18 615 138
1092 28 111 35 178 16 149z"/>
<path d="M5580 4893 c0 -22 134 -111 285 -188 200 -102 216 -112 195 -125 -8
-5 -12 -11 -9 -14 10 -11 251 -146 259 -146 4 0 19 -9 34 -21 15 -12 44 -31
65 -43 163 -92 593 -397 571 -404 -5 -2 -27 9 -48 25 -20 15 -44 33 -53 38 -9
6 -59 42 -111 81 -133 100 -593 374 -629 374 -37 0 99 -95 226 -158 29 -14
165 -99 271 -169 28 -18 61 -45 75 -59 16 -17 -5 -8 -61 29 -116 75 -239 141
-405 220 -168 79 -185 84 -185 62 0 -11 27 -29 78 -52 197 -89 344 -167 472
-250 191 -124 331 -221 368 -255 61 -56 133 -99 154 -92 10 3 30 -1 45 -9 94
-50 203 -97 223 -97 l23 0 -24 26 c-13 14 -59 53 -103 87 -43 34 -113 91 -155
126 -216 183 -586 439 -858 594 -51 28 -93 55 -93 59 0 7 101 -34 208 -84 78
-36 276 -78 293 -61 9 9 -1 13 -37 18 -63 8 -215 58 -324 105 -171 76 -678
331 -684 345 -6 16 -66 50 -66 38z m1210 -858 c19 -23 8 -26 -19 -4 -16 13
-18 19 -8 19 8 0 20 -7 27 -15z m340 -250 c16 -19 1 -19 -24 0 -16 12 -17 15
-4 15 8 0 21 -7 28 -15z"/>
<path d="M1842 4864 c-42 -107 -98 -438 -112 -664 -18 -297 -10 -456 25 -467
7 -2 10 104 10 304 0 331 3 361 66 681 30 151 34 203 11 146z"/>
<path d="M2673 4878 c-6 -7 -22 -62 -36 -123 -14 -60 -32 -129 -41 -152 -18
-49 -39 -211 -34 -263 3 -30 6 -23 22 45 10 44 40 169 67 278 32 127 47 203
41 213 -7 12 -10 13 -19 2z"/>
<path d="M3135 4866 c-27 -40 -74 -162 -90 -233 -16 -71 -20 -122 -7 -107 13
14 124 355 119 361 -3 3 -13 -7 -22 -21z"/>
<path d="M6310 4846 c0 -9 24 -42 53 -73 66 -70 206 -197 212 -192 2 3 -57 67
-131 144 -82 85 -134 132 -134 121z"/>
<path d="M3259 4803 c-23 -26 -37 -55 -66 -137 -25 -69 -26 -80 -27 -334 -1
-144 1 -259 5 -255 17 18 29 137 29 282 0 184 8 243 50 357 33 88 36 118 9 87z"/>
<path d="M3431 4794 c-28 -63 -80 -258 -71 -273 10 -18 18 -2 41 79 7 25 22
70 35 100 32 80 39 120 21 120 -7 0 -19 -12 -26 -26z"/>
<path d="M1381 4748 c-18 -67 -31 -212 -31 -338 0 -144 7 -190 29 -190 14 0
16 23 16 212 0 117 3 246 8 286 8 80 -4 96 -22 30z"/>
<path d="M1502 4733 c-37 -67 -79 -444 -58 -527 14 -56 24 -21 30 102 7 128
16 212 36 334 6 37 10 78 8 90 l-3 23 -13 -22z"/>
<path d="M2888 4723 c-23 -26 -38 -59 -31 -66 6 -7 62 61 63 76 0 13 -16 8
-32 -10z"/>
<path d="M5130 4711 c0 -28 138 -61 147 -35 5 15 -42 34 -99 41 -34 4 -48 2
-48 -6z"/>
<path d="M3492 4608 c-43 -105 -78 -236 -65 -249 12 -12 15 -4 72 176 45 141
45 145 32 145 -5 0 -23 -33 -39 -72z"/>
<path d="M3628 4635 c-44 -87 -103 -295 -115 -406 -8 -78 11 -79 28 -1 22 105
40 175 80 301 44 138 47 184 7 106z"/>
<path d="M2435 4643 c-11 -28 -23 -279 -15 -320 7 -38 7 -38 18 -12 15 36 28
349 14 349 -5 0 -13 -8 -17 -17z"/>
<path d="M3881 4641 c-25 -25 -68 -108 -72 -140 -8 -51 18 -27 63 59 46 87 50
122 9 81z"/>
<path d="M3959 4619 c-43 -86 -88 -319 -60 -319 15 0 27 33 34 100 7 54 22
119 51 213 18 58 4 62 -25 6z"/>
<path d="M1699 4624 c-32 -83 -51 -225 -56 -419 -7 -253 11 -256 27 -5 6 96
20 235 31 308 21 132 20 172 -2 116z"/>
<path d="M4420 4630 c-13 -24 -76 -303 -95 -420 -80 -490 -116 -796 -122
-1055 -5 -174 -3 -225 12 -297 9 -48 14 -92 10 -98 -11 -18 17 -180 32 -180 7
0 13 3 13 8 0 4 4 13 9 21 8 12 16 9 46 -17 19 -18 42 -32 50 -32 8 0 15 -5
15 -11 0 -7 10 -9 24 -7 21 4 40 -11 117 -95 96 -103 165 -161 180 -151 16 9
-10 44 -91 121 -44 42 -98 100 -122 129 -23 30 -48 54 -55 54 -18 0 -16 41 3
69 16 22 16 25 0 51 -32 55 -14 508 29 720 3 14 12 78 20 143 8 65 24 163 37
217 20 91 20 135 -2 100 -24 -39 -123 -715 -136 -929 -6 -88 -10 -111 -22
-111 -15 0 -16 6 9 -147 18 -111 7 -123 -56 -61 -43 44 -45 47 -44 104 0 33 4
97 8 144 5 47 6 89 3 94 -8 14 -30 -35 -38 -82 -3 -24 -8 -41 -10 -39 -13 13
-14 326 0 437 8 69 18 161 21 205 3 44 10 103 16 130 5 28 16 101 24 164 8 63
19 119 24 125 5 6 12 56 15 111 10 140 41 330 76 461 17 61 30 118 30 127 0
23 -17 21 -30 -3z"/>
<path d="M5350 4632 c0 -17 41 -44 128 -86 75 -36 84 -44 109 -93 29 -55 46
-63 51 -25 4 28 8 28 75 -9 48 -26 58 -36 67 -70 6 -21 33 -87 59 -146 27 -60
55 -128 62 -153 13 -48 26 -70 40 -70 20 0 -1 102 -35 175 -37 78 -67 157 -64
166 4 12 108 -61 175 -122 66 -61 102 -46 46 18 -43 48 -444 310 -558 364
-112 53 -155 67 -155 51z"/>
<path d="M4231 4613 c-10 -19 -61 -238 -87 -374 -17 -85 -20 -217 -12 -476 2
-73 7 -135 11 -139 4 -4 7 -3 7 2 0 5 9 63 20 129 25 153 27 220 4 211 -15 -6
-16 3 -10 86 9 117 32 267 52 336 8 29 21 95 28 147 12 90 8 116 -13 78z"/>
<path d="M4872 4553 c-15 -39 -30 -125 -37 -218 -6 -75 18 -431 31 -472 17
-52 27 -73 37 -73 10 0 7 53 -14 200 -23 165 -14 494 17 573 4 11 1 17 -9 17
-8 0 -19 -12 -25 -27z"/>
<path d="M4629 4543 c-6 -16 -24 -80 -41 -143 -45 -174 -51 -424 -10 -438 8
-2 11 32 9 130 -1 110 3 158 27 278 15 80 32 149 37 155 12 12 11 45 -1 45 -6
0 -15 -12 -21 -27z"/>
<path d="M5280 4548 c0 -13 6 -52 14 -88 9 -36 22 -161 31 -279 19 -255 47
-424 76 -464 20 -28 21 -37 16 -315 -4 -220 -9 -302 -22 -352 -9 -36 -22 -130
-30 -210 -7 -80 -21 -165 -29 -189 -23 -63 -31 -143 -17 -169 20 -38 28 -24
36 61 5 62 12 87 27 104 17 18 21 42 28 150 8 129 34 332 50 388 16 57 22 133
11 140 -7 4 -11 80 -11 228 0 122 -3 232 -6 245 -8 28 -22 28 -33 0 -8 -22 -8
-22 -14 3 -19 80 -53 376 -66 579 -6 84 -14 136 -25 158 -19 37 -36 42 -36 10z"/>
<path d="M5070 4543 c0 -10 4 -24 9 -32 12 -19 24 3 16 29 -8 25 -25 26 -25 3z"/>
<path d="M4053 4513 c-68 -124 -133 -443 -109 -538 13 -51 24 -12 36 124 11
134 46 283 90 387 11 25 20 50 20 55 0 20 -18 7 -37 -28z"/>
<path d="M5437 4508 c-2 -7 5 -30 15 -52 18 -35 21 -37 35 -23 14 14 14 19 -3
48 -21 36 -40 47 -47 27z"/>
<path d="M1552 4463 c-18 -41 -40 -136 -55 -235 -7 -46 12 -32 26 19 12 45 12
45 18 17 4 -16 7 -47 8 -68 1 -25 5 -36 10 -30 10 9 28 344 19 344 -3 0 -15
-21 -26 -47z"/>
<path d="M4515 4458 c-35 -119 -60 -368 -36 -368 4 0 14 48 20 108 7 59 21
150 32 202 22 111 22 110 9 110 -5 0 -16 -24 -25 -52z"/>
<path d="M4756 4472 c-2 -4 -13 -46 -23 -92 -23 -107 -26 -401 -5 -439 25 -43
35 -10 22 71 -17 101 -5 322 25 441 7 25 -7 39 -19 19z"/>
<path d="M3706 4423 c-17 -34 -68 -217 -91 -328 -29 -138 -19 -415 15 -415 5
0 6 60 3 133 -4 95 -1 160 11 232 19 116 48 256 58 270 7 11 38 114 38 127 0
18 -20 6 -34 -19z"/>
<path d="M5013 4423 c-11 -39 -10 -623 1 -648 l8 -20 8 20 c12 29 12 675 0
675 -5 0 -13 -12 -17 -27z"/>
<path d="M5144 4385 c-16 -63 7 -487 32 -607 9 -46 27 -33 20 15 -3 23 -11
168 -17 322 -11 267 -19 332 -35 270z"/>
<path d="M3782 4373 c-17 -45 -31 -237 -43 -573 -16 -435 4 -705 57 -787 9
-15 14 -53 15 -120 0 -102 14 -163 38 -171 12 -4 13 8 5 74 -5 44 -7 112 -6
152 2 58 0 72 -12 72 -8 0 -17 8 -20 18 -13 45 -37 240 -45 357 -12 192 10
776 35 963 7 48 -8 57 -24 15z"/>
<path d="M3260 4361 c-38 -72 -66 -415 -55 -681 12 -280 61 -584 96 -606 13
-8 8 44 -10 113 -25 98 -42 274 -47 513 -8 311 7 548 42 663 7 23 -13 22 -26
-2z"/>
<path d="M5605 4299 c4 -23 16 -68 27 -98 10 -31 34 -160 53 -286 19 -127 37
-240 40 -250 18 -53 28 -75 36 -75 14 0 11 31 -15 163 -13 67 -31 185 -40 262
-23 191 -25 203 -39 217 -7 7 -21 32 -31 56 -27 59 -40 64 -31 11z"/>
<path d="M3088 4315 c-3 -6 -13 -37 -21 -70 -31 -120 -39 -255 -35 -591 4
-307 6 -337 30 -449 27 -122 75 -256 103 -284 21 -21 20 -4 -5 83 -22 78 -45
202 -55 294 -5 42 -11 62 -20 62 -20 0 -23 19 -30 205 -8 190 7 490 31 633 15
88 16 138 2 117z"/>
<path d="M3437 4304 c-31 -108 -52 -723 -31 -906 8 -74 -11 -79 -23 -5 -4 29
-13 50 -18 47 -14 -7 -9 -118 9 -226 8 -49 18 -118 21 -154 6 -57 5 -63 -8
-47 -25 30 -30 19 -24 -50 9 -90 50 -228 68 -228 15 0 17 32 5 76 -6 22 -4 27
13 32 16 4 21 13 21 41 0 20 5 45 11 55 9 14 8 29 -5 66 -15 47 -22 115 -10
102 4 -3 10 -21 15 -39 6 -22 7 3 4 72 -4 88 -9 110 -27 135 -22 29 -23 38
-26 340 -3 231 0 358 12 499 11 119 13 193 7 199 -5 5 -11 2 -14 -9z m10
-1126 c-2 -13 -4 -3 -4 22 0 25 2 35 4 23 2 -13 2 -33 0 -45z m-22 -278 c5
-23 4 -32 -3 -25 -5 6 -13 30 -16 55 -7 50 6 29 19 -30z"/>
<path d="M5472 4303 c-6 -11 -10 -22 -7 -24 14 -14 67 -520 72 -684 5 -179
-15 -587 -36 -731 -8 -57 3 -104 20 -87 6 6 17 87 24 180 7 92 19 240 26 328
17 212 2 500 -41 795 -34 231 -41 256 -58 223z"/>
<path d="M3311 4234 c-23 -51 -34 -196 -28 -379 6 -182 11 -220 29 -209 7 4 8
72 4 198 -6 147 -4 215 8 296 15 106 10 143 -13 94z"/>
<path d="M2519 4203 c-20 -23 -27 -247 -8 -241 10 3 16 33 20 104 4 54 10 111
14 127 8 31 -5 36 -26 10z"/>
<path d="M6165 4209 c-16 -26 136 -92 159 -69 7 7 7 13 0 20 -16 16 -154 58
-159 49z"/>
<path d="M4055 4178 c-21 -66 -47 -952 -31 -1081 13 -102 26 -50 26 106 0 219
18 695 31 811 10 99 5 176 -12 176 -5 0 -11 -6 -14 -12z"/>
<path d="M6386 4171 c-3 -4 2 -15 12 -24 19 -17 311 -167 326 -167 5 0 1 9 -9
20 -10 11 -24 20 -30 20 -7 0 -19 7 -26 16 -7 9 -22 20 -34 25 -11 5 -67 34
-124 64 -114 61 -108 58 -115 46z"/>
<path d="M2011 4123 c-13 -46 -14 -133 -2 -133 14 0 22 29 28 103 7 75 -9 93
-26 30z"/>
<path d="M1577 4144 c-9 -9 -9 -76 -1 -98 12 -30 24 -16 23 27 0 48 -11 82
-22 71z"/>
<path d="M3861 4088 c-28 -147 -41 -905 -16 -961 14 -34 25 4 19 64 -4 31 -2
64 3 73 7 12 13 -19 22 -104 14 -138 17 -150 38 -150 13 0 14 8 10 43 -21 151
-30 341 -19 419 21 152 34 280 28 285 -3 3 -10 -6 -15 -21 -15 -38 -51 -291
-52 -361 0 -50 -2 -56 -10 -35 -9 22 -1 331 18 681 6 119 -8 157 -26 67z"/>
<path d="M5810 4123 c0 -10 7 -49 16 -88 26 -123 43 -216 64 -360 11 -77 28
-157 37 -178 14 -33 15 -68 6 -345 -10 -272 -13 -314 -32 -364 -22 -59 -28
-152 -12 -163 15 -8 22 10 31 78 5 35 18 83 28 107 18 41 20 81 26 405 3 198
2 366 -3 374 -5 7 -14 11 -20 7 -13 -8 -18 12 -31 135 -9 91 -59 328 -80 384
-11 29 -30 34 -30 8z"/>
<path d="M6165 4108 c10 -33 29 -60 94 -136 32 -38 80 -101 105 -140 25 -40
53 -72 61 -72 19 0 19 4 -1 41 -17 33 -13 48 8 31 7 -5 49 -22 93 -38 44 -15
84 -31 90 -36 5 -4 -26 -5 -68 -2 -50 5 -77 3 -77 -3 0 -19 25 -31 105 -54 44
-12 96 -26 115 -31 19 -6 69 -17 110 -25 100 -20 179 -44 187 -56 8 -12 -171
-1 -282 19 -98 17 -95 17 -95 -1 0 -19 31 -35 100 -53 60 -15 77 -17 195 -26
107 -8 245 -29 221 -34 -28 -6 -323 16 -439 33 -113 17 -131 25 -153 67 -13
26 -18 28 -30 17 -12 -12 -9 -26 16 -94 46 -120 60 -190 60 -296 0 -89 -3
-102 -30 -154 -34 -64 -36 -75 -16 -75 25 0 50 44 75 133 24 86 24 87 60 92
70 11 96 21 99 38 3 15 -5 17 -70 15 -66 -3 -73 -1 -76 17 -2 18 4 20 60 22
72 2 122 17 115 36 -2 7 -20 12 -40 11 -20 -1 -34 2 -31 7 9 14 77 29 137 29
57 0 67 6 45 28 -6 6 -9 14 -6 17 8 8 570 -25 602 -36 16 -5 60 -12 98 -16 51
-4 80 -13 115 -35 52 -33 51 -46 -1 -27 -36 13 -53 9 -41 -11 3 -6 43 -29 88
-52 121 -60 251 -153 315 -225 31 -34 63 -65 70 -68 22 -8 33 4 22 24 -6 12
-5 22 2 29 19 19 -33 82 -116 142 -42 30 -129 94 -194 141 -64 47 -135 95
-158 107 -54 28 -210 72 -254 72 -28 0 -37 5 -47 25 -13 29 -15 29 62 10 84
-20 117 -20 113 2 -2 11 -17 20 -38 25 -77 15 -248 57 -294 73 -86 29 -320
147 -366 185 -51 41 -314 200 -332 200 -23 0 30 -45 137 -115 61 -39 133 -84
161 -99 27 -15 73 -44 100 -65 28 -21 61 -41 75 -44 13 -3 33 -13 44 -22 19
-15 18 -16 -21 -10 -23 4 -75 15 -115 26 -41 10 -110 26 -154 35 -44 10 -82
19 -84 21 -3 2 4 9 14 17 10 7 16 20 13 28 -7 16 -137 58 -180 58 -15 0 -29 4
-32 9 -4 5 -29 15 -57 22 -42 11 -56 21 -80 55 -15 23 -41 52 -56 65 -15 13
-52 52 -82 87 -57 65 -77 77 -66 40z m1118 -542 c46 -11 30 -23 -25 -19 -84 6
-118 13 -118 24 0 19 44 27 80 14 19 -7 47 -16 63 -19z m-253 14 c0 -5 -5 -10
-11 -10 -5 0 -7 5 -4 10 3 6 8 10 11 10 2 0 4 -4 4 -10z m185 -90 c7 -12 -2
-12 -30 0 -19 8 -19 9 2 9 12 1 25 -3 28 -9z m145 -12 c10 -6 -2 -7 -34 -4
-27 3 -57 6 -67 6 -11 0 -19 4 -19 10 0 11 98 2 120 -12z m-750 -2 c0 -3 -4
-8 -10 -11 -5 -3 -10 -1 -10 4 0 6 5 11 10 11 6 0 10 -2 10 -4z"/>
<path d="M2090 4095 c-9 -22 -11 -75 -6 -205 4 -111 3 -171 -3 -165 -5 6 -24
52 -41 102 -18 51 -36 91 -40 88 -20 -13 38 -205 100 -326 16 -31 34 -75 41
-98 8 -27 18 -41 29 -41 14 0 16 7 10 43 -4 23 -12 60 -18 82 -22 80 -42 256
-43 376 -1 68 -4 135 -9 149 l-7 25 -13 -30z"/>
<path d="M1490 4063 c0 -10 4 -25 10 -33 8 -12 10 -12 16 3 7 20 -1 47 -16 47
-5 0 -10 -8 -10 -17z"/>
<path d="M2790 4045 c-18 -47 -30 -154 -36 -337 -7 -178 -1 -214 24 -145 7 19
12 86 12 158 0 69 5 174 11 233 11 111 8 140 -11 91z"/>
<path d="M6050 4021 c0 -24 11 -109 24 -190 14 -80 27 -171 31 -201 12 -114
16 -130 32 -130 13 0 14 11 8 73 -18 193 -63 456 -82 477 -11 12 -13 8 -13
-29z"/>
<path d="M6094 4033 c4 -16 21 -75 38 -132 29 -94 48 -125 65 -107 9 9 -33
150 -63 214 -27 56 -50 70 -40 25z"/>
<path d="M6332 4034 c2 -9 35 -28 78 -45 84 -33 100 -35 100 -15 0 19 -17 31
-80 55 -67 26 -103 27 -98 5z"/>
<path d="M1542 3929 c3 -28 13 -58 22 -67 15 -15 16 -14 16 16 0 34 -24 102
-36 102 -3 0 -4 -23 -2 -51z"/>
<path d="M1493 3907 c3 -27 10 -54 16 -60 18 -18 14 66 -5 89 -14 18 -15 16
-11 -29z"/>
<path d="M4661 3923 c-19 -48 -80 -382 -105 -579 -13 -95 -31 -319 -39 -479
l-2 -50 -15 30 c-13 28 -14 29 -18 7 -2 -12 8 -68 22 -125 13 -56 28 -117 31
-135 8 -37 26 -38 36 -1 3 13 4 149 2 303 -3 282 4 389 42 606 8 47 26 155 40
240 15 85 29 167 32 183 3 15 1 27 -5 27 -5 0 -14 -12 -21 -27z"/>
<path d="M3084 3795 c7 -173 26 -345 37 -345 5 0 12 15 17 33 l9 32 7 -40 c23
-125 51 -152 42 -39 -12 137 -18 184 -25 184 -4 0 -12 -21 -18 -47 -13 -63
-16 -46 -38 172 -21 216 -40 246 -31 50z"/>
<path d="M5271 3563 c0 -203 -5 -424 -11 -493 -5 -69 -10 -165 -10 -213 0 -82
-3 -94 -34 -150 -55 -101 -85 -282 -46 -282 11 0 17 17 22 64 10 93 27 166 43
187 13 18 15 17 26 -14 7 -22 17 -32 28 -30 13 3 15 13 11 58 -7 82 -1 484 9
565 5 39 6 75 2 80 -3 6 -6 111 -6 235 -1 223 -10 360 -25 360 -4 0 -8 -165
-9 -367z"/>
<path d="M5993 3893 c3 -16 11 -41 17 -58 18 -43 25 -13 10 41 -14 48 -36 62
-27 17z"/>
<path d="M6250 3895 c0 -31 61 -225 71 -225 25 0 10 85 -37 208 -17 47 -34 55
-34 17z"/>
<path d="M4801 3867 c-18 -47 -71 -397 -81 -532 -14 -180 -18 -205 -34 -205
-32 0 -48 -80 -54 -262 -6 -200 0 -227 50 -246 18 -6 33 -11 34 -9 2 1 -7 30
-19 64 -20 56 -20 63 -6 80 12 14 19 61 29 193 7 96 16 202 21 235 5 33 16
128 23 210 8 83 23 202 34 265 31 175 36 230 23 230 -6 0 -15 -10 -20 -23z
m-116 -914 c-4 -60 -11 -112 -15 -117 -8 -8 -6 57 6 172 10 94 16 54 9 -55z"/>
<path d="M4418 3874 c-33 -50 -86 -385 -95 -599 -6 -160 3 -352 18 -376 22
-34 28 21 22 216 -6 211 5 354 48 609 19 114 22 173 7 150z"/>
<path d="M3547 3843 c-41 -63 -21 -698 27 -858 12 -38 28 -70 34 -70 7 0 22
-20 34 -45 27 -60 38 -100 28 -100 -16 0 -69 50 -91 87 -19 31 -23 33 -32 18
-5 -10 -7 -53 -5 -97 l5 -79 -41 41 c-22 23 -42 37 -44 31 -7 -21 46 -96 114
-161 53 -50 69 -61 72 -48 2 10 -5 30 -15 45 -20 28 -66 173 -59 180 2 3 23
-14 46 -36 23 -23 50 -41 60 -41 10 0 20 -7 24 -15 3 -8 12 -15 20 -15 13 0
30 -39 21 -49 -3 -2 -14 4 -25 14 -27 24 -25 11 5 -41 26 -44 121 -134 142
-134 21 0 2 33 -44 73 -42 38 -43 40 -43 100 -1 98 -28 306 -49 372 -31 99
-51 241 -51 368 0 90 -3 118 -12 115 -49 -17 -24 -345 46 -603 9 -32 16 -71
16 -85 l-1 -25 -14 26 c-7 14 -28 72 -44 129 -17 57 -35 108 -39 114 -8 11
-29 86 -53 191 -7 28 -14 176 -18 330 -3 154 -9 275 -14 268z"/>
<path d="M4963 3824 c-40 -70 -76 -475 -69 -770 3 -120 5 -234 5 -253 1 -18 5
-39 10 -45 7 -8 5 -33 -4 -71 -8 -33 -14 -106 -15 -162 0 -57 -3 -103 -6 -103
-10 0 -31 30 -55 79 l-22 43 18 172 c29 278 29 289 14 284 -7 -2 -16 -18 -20
-34 -10 -37 -39 -333 -39 -393 0 -62 59 -179 124 -243 40 -41 53 -49 79 -46
43 4 49 35 10 44 -15 4 -43 18 -61 31 -24 18 -30 28 -23 41 4 9 11 62 15 117
3 55 15 147 26 205 11 58 20 118 20 135 -1 28 -1 29 -15 11 -8 -11 -18 -16
-22 -12 -12 11 -7 448 6 621 6 83 18 185 27 227 8 43 14 92 12 110 -3 31 -4
32 -15 12z"/>
<path d="M1380 3811 c0 -19 126 -161 143 -161 9 0 -41 72 -91 131 -32 38 -52
49 -52 30z"/>
<path d="M1906 3773 c9 -39 23 -63 35 -63 7 0 8 7 4 18 -4 9 -12 29 -17 45 -5
15 -14 27 -19 27 -5 0 -6 -12 -3 -27z"/>
<path d="M5058 3755 c-29 -47 -47 -434 -40 -837 4 -219 9 -265 26 -222 3 9 6
163 6 342 0 180 5 409 11 508 11 177 10 229 -3 209z"/>
<path d="M5635 3728 c-4 -14 3 -85 14 -156 33 -201 46 -440 32 -569 -24 -220
-24 -219 -12 -207 19 17 39 107 51 229 14 128 4 292 -32 543 -22 158 -40 212
-53 160z"/>
<path d="M6233 3638 c16 -254 31 -368 48 -368 13 0 11 50 -6 240 -18 194 -24
230 -38 230 -6 0 -8 -35 -4 -102z"/>
<path d="M5157 3650 c-12 -35 -22 -119 -28 -235 -12 -192 -8 -733 5 -754 6 -9
11 -10 20 -1 8 8 10 115 8 378 -3 232 1 413 8 492 15 158 11 197 -13 120z"/>
<path d="M5807 3283 l-3 -388 -38 -105 c-42 -116 -54 -225 -26 -225 9 0 17 16
22 45 20 116 32 159 53 206 22 47 25 69 33 315 9 242 2 504 -13 529 -21 33
-25 -23 -28 -377z"/>
<path d="M1580 3632 c0 -28 191 -200 270 -242 52 -28 37 1 -26 50 -38 30 -104
86 -147 125 -80 72 -97 84 -97 67z"/>
<path d="M6379 3628 c0 -2 -4 -85 -9 -185 -7 -163 -10 -185 -29 -209 -14 -18
-21 -41 -21 -73 0 -25 -7 -116 -17 -202 -16 -150 -14 -204 7 -183 16 16 40
160 40 242 0 47 4 72 9 66 5 -5 11 -22 13 -38 2 -16 9 -31 16 -34 9 -3 12 63
12 307 0 201 -4 311 -10 311 -5 0 -10 -1 -11 -2z"/>
<path d="M6057 3603 c-3 -5 -2 -183 3 -396 7 -322 6 -394 -6 -433 -17 -57 -19
-123 -3 -107 13 13 39 112 40 150 0 15 3 160 5 322 4 185 2 323 -5 374 -11 78
-22 109 -34 90z"/>
<path d="M2050 3536 c0 -29 80 -189 98 -194 6 -2 12 2 12 10 1 18 -93 208
-102 208 -5 0 -8 -11 -8 -24z"/>
<path d="M6195 3448 c-7 -31 -33 -349 -40 -483 -7 -124 5 -280 20 -279 6 0 11
9 13 20 1 10 10 45 19 78 16 55 16 59 -1 71 -16 12 -16 25 -7 172 20 316 24
443 12 443 -6 0 -13 -10 -16 -22z"/>
<path d="M1711 3414 c18 -19 44 -41 56 -47 11 -7 59 -37 105 -68 45 -31 142
-90 213 -131 72 -41 169 -100 217 -132 118 -77 434 -238 460 -234 41 6 28 24
-29 42 -121 38 -464 232 -590 333 -23 19 -66 42 -95 51 -53 18 -140 72 -274
170 -82 60 -114 68 -63 16z"/>
<path d="M2210 3422 c0 -10 22 -62 50 -115 48 -94 53 -125 11 -71 -12 15 -21
21 -21 15 0 -24 40 -87 87 -140 l48 -53 -1 48 c0 27 -6 62 -12 77 -7 16 -12
34 -12 42 0 7 -20 37 -44 67 -23 29 -46 64 -50 78 -12 43 -29 70 -43 70 -7 0
-13 -8 -13 -18z"/>
<path d="M6491 3403 c-7 -14 -18 -110 -26 -212 -8 -102 -19 -201 -25 -219 -7
-18 -9 -39 -6 -48 10 -26 31 0 49 59 16 56 40 427 28 440 -4 4 -13 -5 -20 -20z"/>
<path d="M4121 3349 c-7 -29 -14 -109 -18 -177 -6 -111 -8 -125 -25 -130 -22
-5 -21 -24 13 -170 26 -113 24 -203 -3 -186 -16 10 1 -37 28 -76 33 -49 144
-157 144 -141 0 16 -38 70 -83 118 -29 31 -29 32 -23 120 3 48 6 93 7 98 0 6
-7 66 -16 135 -15 109 -16 145 -5 284 7 102 8 162 2 168 -6 6 -14 -9 -21 -43z"/>
<path d="M3197 3307 c-11 -29 -8 -85 9 -177 8 -47 17 -152 18 -235 1 -82 6
-163 11 -178 9 -33 36 -33 45 0 4 20 11 16 68 -47 35 -39 68 -70 73 -70 19 0
8 22 -34 68 -61 66 -127 171 -127 203 0 14 -3 41 -6 58 -8 40 7 40 31 -1 29
-48 32 -11 6 60 -18 51 -54 187 -78 297 -7 31 -10 36 -16 22z"/>
<path d="M8985 3300 c3 -5 10 -10 16 -10 5 0 9 5 9 10 0 6 -7 10 -16 10 -8 0
-12 -4 -9 -10z"/>
<path d="M8410 3281 c0 -20 85 -81 188 -134 112 -58 319 -136 385 -144 58 -8
70 13 16 27 -153 39 -307 104 -460 193 -120 69 -129 73 -129 58z"/>
<path d="M6666 3174 c-19 -18 -13 -34 13 -34 20 0 54 33 44 43 -11 12 -41 7
-57 -9z"/>
<path d="M3980 3105 c-6 -15 -13 -66 -16 -114 -9 -123 31 -311 67 -311 17 0
22 30 9 58 -6 15 -18 107 -25 205 -7 98 -15 180 -18 184 -4 3 -11 -7 -17 -22z"/>
<path d="M2820 3068 c0 -31 53 -121 87 -148 39 -30 42 -8 5 43 -16 23 -39 61
-51 85 -23 46 -41 55 -41 20z"/>
<path d="M3883 2898 c5 -118 23 -180 53 -192 9 -4 19 -5 21 -2 3 2 -7 41 -21
86 -14 44 -26 102 -26 128 0 57 -9 92 -23 92 -6 0 -8 -39 -4 -112z"/>
<path d="M8616 2875 c6 -15 91 -59 139 -71 16 -4 81 -33 144 -65 224 -112 451
-191 749 -264 140 -34 231 -42 257 -22 31 24 9 34 -85 39 -187 10 -578 131
-860 265 -74 36 -144 68 -155 73 -11 4 -48 20 -83 34 -72 30 -115 34 -106 11z"/>
<path d="M9076 2841 c-9 -14 73 -64 171 -105 49 -20 104 -45 123 -55 19 -11
69 -29 110 -41 41 -12 89 -28 105 -35 17 -7 75 -25 130 -40 55 -14 136 -40
180 -56 159 -57 229 -69 409 -69 129 0 166 3 166 13 0 8 -111 50 -297 111
-164 54 -327 111 -362 127 -62 28 -121 38 -121 20 0 -4 33 -23 73 -41 67 -30
362 -139 435 -161 48 -15 29 -32 -27 -24 -88 13 -493 127 -661 187 -63 22
-182 71 -264 109 -158 73 -162 74 -170 60z"/>
<path d="M7756 2779 c-24 -13 -35 -24 -29 -30 18 -18 82 16 83 44 0 11 -11 8
-54 -14z"/>
<path d="M5630 2749 c-24 -40 -70 -184 -70 -220 0 -13 4 -30 9 -38 14 -22 31
-3 31 36 0 35 13 90 46 196 19 60 12 71 -16 26z"/>
<path d="M5491 2688 c-30 -71 -49 -184 -34 -199 19 -19 31 -2 38 54 7 57 23
152 31 180 12 39 -15 13 -35 -35z"/>
<path d="M3920 2655 c0 -11 11 -39 25 -62 18 -33 20 -43 9 -43 -8 0 -14 -7
-14 -16 0 -12 6 -15 24 -10 19 5 30 -4 70 -54 29 -38 53 -60 66 -60 28 0 25
12 -11 46 -18 16 -51 58 -75 94 -24 36 -54 79 -68 95 -22 26 -25 27 -26 10z"/>
<path d="M7490 2662 c-35 -5 -50 -22 -19 -22 24 0 58 16 49 22 -3 2 -16 2 -30
0z"/>
<path d="M5045 2598 c-8 -28 -15 -63 -15 -77 0 -46 -15 -56 -38 -27 -44 57
-44 10 1 -61 24 -38 42 -56 72 -67 91 -35 114 -9 35 39 -28 16 -50 34 -50 40
1 5 7 46 15 90 17 95 18 115 5 115 -5 0 -16 -23 -25 -52z"/>
<path d="M7405 2640 c-3 -5 1 -10 9 -10 9 0 16 5 16 10 0 6 -4 10 -9 10 -6 0
-13 -4 -16 -10z"/>
<path d="M7355 2630 c3 -5 10 -10 16 -10 5 0 9 5 9 10 0 6 -7 10 -16 10 -8 0
-12 -4 -9 -10z"/>
<path d="M7000 2553 c-102 -19 -109 -22 -88 -34 24 -13 208 27 208 46 0 8 -37
4 -120 -12z"/>
<path d="M4110 2537 c0 -37 108 -142 127 -123 7 6 -106 136 -118 136 -5 0 -9
-6 -9 -13z"/>
<path d="M4630 2528 c0 -41 139 -198 175 -198 9 0 15 4 13 9 -7 21 -188 202
-188 189z"/>
<path d="M3695 2471 c-7 -12 50 -29 125 -37 68 -8 59 7 -19 30 -62 18 -97 20
-106 7z"/>
<path d="M4371 2445 c-1 -33 69 -125 96 -125 22 0 14 22 -19 54 -18 17 -43 45
-55 61 -19 26 -22 27 -22 10z"/>
<path d="M5210 2434 c0 -9 9 -32 21 -50 16 -26 27 -34 50 -34 16 0 29 4 29 9
0 9 -85 91 -95 91 -3 0 -5 -7 -5 -16z"/>
<path d="M6101 1176 c-9 -11 -6 -22 14 -51 14 -21 25 -45 25 -54 0 -27 21 -41
62 -41 36 0 38 2 38 30 0 22 5 31 23 35 36 10 598 -2 609 -13 10 -10 -124 -22
-256 -22 -84 0 -279 -24 -299 -37 -6 -4 -38 -14 -71 -23 -32 -8 -57 -19 -55
-25 5 -14 111 -7 181 11 76 19 418 41 833 54 293 9 362 8 498 -6 86 -9 165
-13 175 -9 16 6 16 7 -1 19 -22 17 -101 25 -368 35 -197 8 -219 11 -237 29
-18 18 -38 20 -278 26 -663 17 -788 23 -828 40 -47 20 -51 20 -65 2z m915 -95
c-27 -4 -66 -4 -85 0 -25 5 -10 7 49 7 72 -1 78 -2 36 -7z"/>
<path d="M2260 1139 c-200 -10 -276 -20 -272 -34 1 -6 75 -8 205 -5 305 8 791
6 1082 -3 252 -9 334 -4 342 20 7 19 -1066 37 -1357 22z"/>
<path d="M3653 1123 c-7 -2 -13 -13 -13 -24 0 -19 7 -19 152 -17 103 2 153 7
155 15 6 17 -86 33 -190 32 -51 0 -98 -3 -104 -6z"/>
<path d="M8470 1082 c0 -24 85 -33 540 -57 162 -8 480 -26 705 -40 226 -13
480 -27 565 -30 847 -31 915 -35 1359 -76 349 -32 387 -34 397 -17 13 21 -28
39 -76 33 -25 -3 -169 3 -320 14 -382 28 -838 53 -1210 66 -91 4 -365 19 -610
35 -245 16 -620 39 -835 50 -214 11 -418 22 -452 26 -38 3 -63 2 -63 -4z"/>
<path d="M3225 1049 c-77 -4 -286 -12 -465 -18 -179 -6 -349 -14 -377 -18 -47
-5 -53 -8 -53 -29 0 -28 7 -28 117 -14 40 5 278 19 530 30 252 12 471 24 487
29 16 4 31 12 34 19 4 14 -46 14 -273 1z"/>
<path d="M1600 1043 c-14 -2 -68 -7 -120 -11 -74 -5 -95 -10 -98 -23 -2 -14
38 -15 405 -12 411 4 503 8 487 23 -20 18 -581 37 -674 23z"/>
<path d="M7170 989 c-269 -7 -361 -16 -383 -38 -22 -22 6 -24 150 -10 238 22
1667 19 2004 -4 258 -18 317 -15 306 16 -2 8 -23 11 -68 9 -35 -2 -231 6 -436
17 -392 22 -980 26 -1573 10z"/>
<path d="M3320 941 c-58 -4 -215 -13 -350 -19 -377 -18 -390 -20 -390 -54 0
-16 4 -19 23 -13 12 3 171 13 352 20 182 8 383 18 449 24 67 5 164 5 225 1 58
-5 161 -11 229 -15 107 -5 123 -4 129 11 3 9 0 19 -6 23 -26 16 -511 32 -661
22z"/>
<path d="M6233 916 c-18 -8 -33 -20 -33 -26 0 -17 50 -31 88 -24 19 4 91 10
160 13 79 4 127 10 129 17 6 18 -17 22 -169 29 -115 4 -149 3 -175 -9z"/>
<path d="M5858 831 c-53 -3 -102 -11 -109 -18 -22 -22 2 -33 71 -33 39 0 72 5
76 11 4 8 9 8 17 0 18 -18 55 -13 79 11 21 21 21 22 2 29 -10 4 -23 7 -29 7
-5 -1 -54 -4 -107 -7z"/>
<path d="M6209 821 c-119 -6 -153 -18 -142 -48 4 -11 14 -13 37 -8 17 4 136 9
263 11 232 3 273 9 273 39 0 13 -25 15 -157 13 -87 -1 -210 -4 -274 -7z"/>
<path d="M5875 730 c-27 -4 -85 -10 -128 -15 -54 -5 -80 -11 -84 -21 -3 -8 -3
-17 -1 -19 5 -5 307 13 346 21 12 2 22 11 22 18 0 25 -55 31 -155 16z"/>
</g>
</svg>
